<svg width="188" height="161" viewBox="0 0 188 161" fill="none" xmlns="http://www.w3.org/2000/svg">
<path d="M178.887 146.246C178.502 145.191 177.344 144.643 176.293 145.03L167.906 148.095C164.433 147.067 162.538 144.77 160.855 140.143C156.272 127.505 164.68 107.663 160.709 85.6043C157.356 66.9973 144.512 48.9912 144.512 48.9912L125.369 55.9813L106.226 62.9715C106.226 62.9715 107.915 85.0501 117.261 101.467C128.335 120.929 147.492 130.703 152.075 143.341C153.751 147.968 153.771 150.959 151.769 153.983L143.381 157.048C142.33 157.435 141.785 158.597 142.171 159.652C142.556 160.706 143.714 161.254 144.765 160.867L177.683 148.843C178.734 148.455 179.28 147.294 178.894 146.239L178.887 146.246Z" fill="white"/>
<path d="M123.939 50.306C109.924 55.4267 110.582 61.6558 110.582 61.6558L126.014 56.0209L141.446 50.3861C141.446 50.3861 137.96 45.1919 123.945 50.3127L123.939 50.306Z" fill="white"/>
<path opacity="0.6" d="M140.707 50.373L125.362 55.9812L110.017 61.5893C110.017 61.5893 110.735 66.5498 111.613 72.4117L129.014 66.0558L146.414 59.6999C143.335 54.6459 140.707 50.3797 140.707 50.3797V50.373Z" fill="white"/>
<path d="M111.62 72.4116C113.03 79.996 115.744 90.6781 120.746 99.4709C126.094 108.864 133.604 116.048 140.229 122.391C141.798 123.893 143.315 125.342 144.758 126.777H144.772C146.541 128.373 149.115 128.967 151.51 128.092C153.904 127.218 155.494 125.101 155.826 122.731H155.84C156.026 120.695 156.259 118.605 156.498 116.442C157.516 107.309 158.667 96.9539 156.744 86.3118C154.942 76.3173 150.186 66.4029 146.414 59.6865L111.62 72.3983V72.4116Z" fill="#F5CF57"/>
<path d="M109.724 76.1638C114.302 76.1638 118.012 72.4394 118.012 67.8451C118.012 63.2508 114.302 59.5264 109.724 59.5264C105.147 59.5264 101.437 63.2508 101.437 67.8451C101.437 72.4394 105.147 76.1638 109.724 76.1638Z" fill="white"/>
<path d="M121.651 72.138C129.009 72.138 134.974 66.1508 134.974 58.7653C134.974 51.3797 129.009 45.3926 121.651 45.3926C114.293 45.3926 108.328 51.3797 108.328 58.7653C108.328 66.1508 114.293 72.138 121.651 72.138Z" fill="white"/>
<path d="M144.439 63.1379C149.016 63.1379 152.727 59.4135 152.727 54.8192C152.727 50.2249 149.016 46.5005 144.439 46.5005C139.862 46.5005 136.151 50.2249 136.151 54.8192C136.151 59.4135 139.862 63.1379 144.439 63.1379Z" fill="white"/>
<path d="M136.025 59.9602C140.602 59.9602 144.313 56.2358 144.313 51.6415C144.313 47.0472 140.602 43.3228 136.025 43.3228C131.447 43.3228 127.737 47.0472 127.737 51.6415C127.737 56.2358 131.447 59.9602 136.025 59.9602Z" fill="white"/>
<path d="M136.949 70.055C140.88 70.055 144.066 66.8566 144.066 62.9113C144.066 58.9659 140.88 55.7676 136.949 55.7676C133.018 55.7676 129.832 58.9659 129.832 62.9113C129.832 66.8566 133.018 70.055 136.949 70.055Z" fill="white"/>
<path d="M121.471 84.6428C122.738 84.6428 123.766 83.6116 123.766 82.3395C123.766 81.0674 122.738 80.0361 121.471 80.0361C120.204 80.0361 119.176 81.0674 119.176 82.3395C119.176 83.6116 120.204 84.6428 121.471 84.6428Z" stroke="#FFF0D0" stroke-width="2" stroke-miterlimit="10"/>
<path d="M147.292 116.442C148.097 116.442 148.749 115.787 148.749 114.98C148.749 114.172 148.097 113.518 147.292 113.518C146.488 113.518 145.836 114.172 145.836 114.98C145.836 115.787 146.488 116.442 147.292 116.442Z" stroke="#FFF0D0" stroke-width="2" stroke-miterlimit="10"/>
<path d="M147.818 100.085C150.257 100.085 152.235 98.1002 152.235 95.6518C152.235 93.2035 150.257 91.2188 147.818 91.2188C145.379 91.2188 143.401 93.2035 143.401 95.6518C143.401 98.1002 145.379 100.085 147.818 100.085Z" stroke="#FFF0D0" stroke-width="2" stroke-miterlimit="10"/>
<path d="M149.966 109.345C151.234 109.345 152.261 108.314 152.261 107.042C152.261 105.77 151.234 104.738 149.966 104.738C148.699 104.738 147.672 105.77 147.672 107.042C147.672 108.314 148.699 109.345 149.966 109.345Z" stroke="#FFF0D0" stroke-width="2" stroke-miterlimit="10"/>
<path d="M18.5647 146.245C18.9505 145.19 20.1078 144.643 21.1588 145.03L29.5464 148.094C33.0185 147.066 34.9142 144.77 36.5971 140.143C41.18 127.505 32.7724 107.662 36.7434 85.6038C40.0958 66.9968 52.94 48.9907 52.94 48.9907L72.0832 55.9809L91.2264 62.971C91.2264 62.971 89.5369 85.0497 80.1915 101.467C69.1166 120.928 49.9601 130.702 45.3772 143.341C43.701 147.968 43.681 150.959 45.6831 153.983L54.0708 157.047C55.1217 157.435 55.6671 158.596 55.2814 159.651C54.8956 160.706 53.7382 161.253 52.6872 160.866L19.7686 148.842C18.7177 148.455 18.1722 147.293 18.558 146.238L18.5647 146.245Z" fill="white"/>
<path d="M73.5199 50.306C87.5347 55.4267 86.8762 61.6558 86.8762 61.6558L71.4446 56.0209L56.0129 50.3861C56.0129 50.3861 59.4984 45.1919 73.5132 50.3127L73.5199 50.306Z" fill="white"/>
<path opacity="0.6" d="M56.7446 50.373L72.0898 55.9812L87.435 61.5893C87.435 61.5893 86.7166 66.5498 85.8386 72.4117L68.4381 66.0558L51.0376 59.6999C54.1173 54.6459 56.7446 50.3797 56.7446 50.3797V50.373Z" fill="white"/>
<path d="M85.8386 72.4116C84.4285 79.996 81.7146 90.6781 76.7127 99.4709C71.3648 108.864 63.8552 116.048 57.2302 122.391C55.6604 123.893 54.1439 125.342 52.7005 126.777H52.6872C50.9179 128.373 48.3437 128.967 45.9492 128.092C43.5546 127.218 41.9649 125.101 41.6323 122.731H41.619C41.4327 120.695 41.1999 118.605 40.9605 116.442C39.9428 107.309 38.7921 96.9539 40.7144 86.3118C42.5169 76.3173 47.2728 66.4029 51.0443 59.6865L85.8386 72.3983V72.4116Z" fill="#F5CF57"/>
<path d="M87.7344 76.1638C92.3116 76.1638 96.0222 72.4394 96.0222 67.8451C96.0222 63.2508 92.3116 59.5264 87.7344 59.5264C83.1571 59.5264 79.4465 63.2508 79.4465 67.8451C79.4465 72.4394 83.1571 76.1638 87.7344 76.1638Z" fill="white"/>
<path d="M75.8082 72.138C83.1663 72.138 89.1313 66.1508 89.1313 58.7653C89.1313 51.3797 83.1663 45.3926 75.8082 45.3926C68.4501 45.3926 62.4851 51.3797 62.4851 58.7653C62.4851 66.1508 68.4501 72.138 75.8082 72.138Z" fill="white"/>
<path d="M53.0132 63.1379C57.5905 63.1379 61.3011 59.4135 61.3011 54.8192C61.3011 50.2249 57.5905 46.5005 53.0132 46.5005C48.4359 46.5005 44.7253 50.2249 44.7253 54.8192C44.7253 59.4135 48.4359 63.1379 53.0132 63.1379Z" fill="white"/>
<path d="M61.4341 59.9602C66.0114 59.9602 69.722 56.2358 69.722 51.6415C69.722 47.0472 66.0114 43.3228 61.4341 43.3228C56.8568 43.3228 53.1462 47.0472 53.1462 51.6415C53.1462 56.2358 56.8568 59.9602 61.4341 59.9602Z" fill="white"/>
<path d="M60.5095 70.055C64.4402 70.055 67.6267 66.8566 67.6267 62.9113C67.6267 58.9659 64.4402 55.7676 60.5095 55.7676C56.5788 55.7676 53.3923 58.9659 53.3923 62.9113C53.3923 66.8566 56.5788 70.055 60.5095 70.055Z" fill="white"/>
<path d="M75.9877 84.6428C77.255 84.6428 78.2825 83.6116 78.2825 82.3395C78.2825 81.0674 77.255 80.0361 75.9877 80.0361C74.7203 80.0361 73.6929 81.0674 73.6929 82.3395C73.6929 83.6116 74.7203 84.6428 75.9877 84.6428Z" stroke="#FFF0D0" stroke-width="2" stroke-miterlimit="10"/>
<path d="M50.1664 116.442C50.9709 116.442 51.6231 115.787 51.6231 114.98C51.6231 114.172 50.9709 113.518 50.1664 113.518C49.3619 113.518 48.7097 114.172 48.7097 114.98C48.7097 115.787 49.3619 116.442 50.1664 116.442Z" stroke="#FFF0D0" stroke-width="2" stroke-miterlimit="10"/>
<path d="M49.6408 100.085C52.08 100.085 54.0574 98.1002 54.0574 95.6518C54.0574 93.2035 52.08 91.2188 49.6408 91.2188C47.2015 91.2188 45.2241 93.2035 45.2241 95.6518C45.2241 98.1002 47.2015 100.085 49.6408 100.085Z" stroke="#FFF0D0" stroke-width="2" stroke-miterlimit="10"/>
<path d="M47.4857 109.345C48.7531 109.345 49.7805 108.314 49.7805 107.042C49.7805 105.77 48.7531 104.738 47.4857 104.738C46.2183 104.738 45.1909 105.77 45.1909 107.042C45.1909 108.314 46.2183 109.345 47.4857 109.345Z" stroke="#FFF0D0" stroke-width="2" stroke-miterlimit="10"/>
<path d="M136.949 51.3411C151.074 51.3411 162.525 39.848 162.525 25.6705C162.525 11.4931 151.074 0 136.949 0C122.824 0 111.374 11.4931 111.374 25.6705C111.374 39.848 122.824 51.3411 136.949 51.3411Z" fill="url(#paint0_radial_430_2507)"/>
<path d="M16.4351 84.4942C20.5201 84.4942 23.8317 81.1703 23.8317 77.0701C23.8317 72.9699 20.5201 69.646 16.4351 69.646C12.3501 69.646 9.03857 72.9699 9.03857 77.0701C9.03857 81.1703 12.3501 84.4942 16.4351 84.4942Z" fill="url(#paint1_radial_430_2507)"/>
<path d="M98.7293 23.4473C102.814 23.4473 106.126 20.1234 106.126 16.0232C106.126 11.923 102.814 8.59912 98.7293 8.59912C94.6443 8.59912 91.3328 11.923 91.3328 16.0232C91.3328 20.1234 94.6443 23.4473 98.7293 23.4473Z" fill="url(#paint2_radial_430_2507)"/>
<path d="M41.8319 60.9951C51.5595 60.9951 59.4452 53.08 59.4452 43.3162C59.4452 33.5523 51.5595 25.6372 41.8319 25.6372C32.1043 25.6372 24.2185 33.5523 24.2185 43.3162C24.2185 53.08 32.1043 60.9951 41.8319 60.9951Z" fill="url(#paint3_radial_430_2507)"/>
<defs>
<radialGradient id="paint0_radial_430_2507" cx="0" cy="0" r="1" gradientUnits="userSpaceOnUse" gradientTransform="translate(136.949 25.6705) scale(25.5753 25.6705)">
<stop stop-color="white" stop-opacity="0.09"/>
<stop offset="0.31" stop-color="white" stop-opacity="0.22"/>
<stop offset="0.63" stop-color="white" stop-opacity="0.61"/>
<stop offset="0.88" stop-color="white" stop-opacity="0.89"/>
<stop offset="1" stop-color="white"/>
</radialGradient>
<radialGradient id="paint1_radial_430_2507" cx="0" cy="0" r="1" gradientUnits="userSpaceOnUse" gradientTransform="translate(16.4351 77.0701) scale(7.39655 7.42409)">
<stop stop-color="white" stop-opacity="0.09"/>
<stop offset="0.31" stop-color="white" stop-opacity="0.22"/>
<stop offset="0.63" stop-color="white" stop-opacity="0.61"/>
<stop offset="0.88" stop-color="white" stop-opacity="0.89"/>
<stop offset="1" stop-color="white"/>
</radialGradient>
<radialGradient id="paint2_radial_430_2507" cx="0" cy="0" r="1" gradientUnits="userSpaceOnUse" gradientTransform="translate(98.7293 16.0232) scale(7.39655 7.42409)">
<stop stop-color="white" stop-opacity="0.09"/>
<stop offset="0.31" stop-color="white" stop-opacity="0.22"/>
<stop offset="0.63" stop-color="white" stop-opacity="0.61"/>
<stop offset="0.88" stop-color="white" stop-opacity="0.89"/>
<stop offset="1" stop-color="white"/>
</radialGradient>
<radialGradient id="paint3_radial_430_2507" cx="0" cy="0" r="1" gradientUnits="userSpaceOnUse" gradientTransform="translate(41.8319 43.3162) scale(17.6134 17.679)">
<stop stop-color="white" stop-opacity="0.09"/>
<stop offset="0.31" stop-color="white" stop-opacity="0.22"/>
<stop offset="0.63" stop-color="white" stop-opacity="0.61"/>
<stop offset="0.88" stop-color="white" stop-opacity="0.89"/>
<stop offset="1" stop-color="white"/>
</radialGradient>
</defs>
</svg>
