<svg width="198" height="162" viewBox="0 0 198 162" fill="none" xmlns="http://www.w3.org/2000/svg">
<path d="M88.4741 109.866C90.7502 113.652 96.248 124.405 98.1504 128.357C100.002 132.33 102.006 136.236 102.833 140.68C102.895 141.02 102.788 141.349 102.572 141.587L102.516 141.649C101.95 142.256 101.31 142.738 100.664 143.203C100.008 143.65 99.3281 144.059 98.626 144.427C97.9353 144.807 97.2162 145.153 96.4915 145.476C95.7611 145.793 95.0194 146.094 94.238 146.315C93.8303 146.434 93.4 146.196 93.2811 145.782C93.1962 145.493 93.2925 145.192 93.4963 145.005C94.0908 144.45 94.7306 143.974 95.3817 143.514C96.0329 143.061 96.701 142.63 97.3861 142.233C98.0655 141.825 98.7676 141.457 99.4867 141.122C100.217 140.805 100.959 140.51 101.774 140.34L101.457 141.304C98.6657 137.755 97.0577 133.668 95.2911 129.655C93.5756 125.619 88.4458 114.695 87.0982 110.489C86.9737 110.092 87.1888 109.667 87.5908 109.537C87.9306 109.429 88.2929 109.576 88.4684 109.866H88.4741Z" fill="#ECB350" stroke="#ECB350" stroke-miterlimit="10"/>
<path d="M115.102 145.748C112.809 145.397 110.584 144.818 108.376 144.172C106.173 143.52 103.999 142.783 101.927 141.706L101.865 141.672C101.491 141.474 101.344 141.009 101.536 140.635C101.644 140.431 101.825 140.295 102.029 140.244C104.418 139.643 106.825 139.156 109.242 138.725C111.66 138.322 114.066 137.829 116.569 137.954C116.993 137.976 117.316 138.334 117.299 138.759C117.282 139.07 117.078 139.331 116.807 139.439C114.463 140.329 112.022 140.595 109.593 140.958C107.164 141.287 104.724 141.565 102.267 141.729L102.369 140.267C104.69 140.533 106.904 141.145 109.095 141.842C111.281 142.545 113.449 143.316 115.544 144.308C115.923 144.49 116.088 144.943 115.906 145.317C115.759 145.629 115.431 145.793 115.102 145.742V145.748Z" fill="#ECB350" stroke="#ECB350" stroke-miterlimit="10"/>
<path d="M102.488 141.661C102.125 141.848 101.684 141.712 101.485 141.355C101.287 140.992 101.417 140.533 101.785 140.334L112.119 134.683C112.453 134.501 112.94 134.621 113.138 134.983C113.336 135.346 113.206 135.805 112.838 136.004L102.505 141.655L102.488 141.667V141.661Z" fill="#ECB350" stroke="#ECB350" stroke-miterlimit="10"/>
<path d="M66.7944 112.955C66.1546 117.325 63.3916 130.068 62.3554 134.331C61.2683 138.583 60.3454 142.874 58.1712 146.83C58.007 147.131 57.7126 147.318 57.3956 147.363L57.3163 147.375C56.4953 147.488 55.697 147.454 54.8986 147.397C54.1059 147.324 53.3246 147.21 52.5489 147.046C51.7732 146.898 50.9975 146.711 50.2331 146.502C49.4688 146.286 48.7044 146.048 47.957 145.719C47.5663 145.549 47.3852 145.096 47.555 144.705C47.6739 144.427 47.9344 144.257 48.2175 144.24C49.0271 144.189 49.8255 144.229 50.6182 144.285C51.4108 144.348 52.1978 144.438 52.9792 144.569C53.7606 144.682 54.5362 144.841 55.3063 145.045C56.0706 145.266 56.835 145.504 57.5711 145.895L56.7161 146.439C56.8067 141.921 58.1486 137.744 59.332 133.515C60.5606 129.303 63.7143 116.662 65.345 112.558C65.4979 112.167 65.9395 111.98 66.3245 112.133C66.6586 112.263 66.8454 112.609 66.7944 112.944V112.955Z" fill="#ECB350" stroke="#ECB350" stroke-miterlimit="10"/>
<path d="M64.4446 158.547C62.8932 156.818 61.54 154.959 60.2434 153.06C58.9525 151.156 57.7352 149.206 56.8179 147.057L56.7896 146.989C56.6254 146.598 56.8066 146.144 57.1916 145.98C57.4011 145.889 57.6332 145.901 57.8201 145.991C60.0452 147.04 62.2138 148.197 64.354 149.398C66.4773 150.628 68.6515 151.773 70.5086 153.457C70.82 153.74 70.8483 154.228 70.5595 154.54C70.3501 154.772 70.0273 154.846 69.7442 154.749C67.3719 153.944 65.3109 152.607 63.2103 151.343C61.121 150.056 59.0601 148.718 57.0557 147.284L58.0636 146.218C59.6885 147.896 61.0134 149.778 62.2647 151.705C63.5104 153.638 64.6937 155.611 65.6902 157.708C65.8714 158.088 65.7072 158.542 65.3279 158.717C65.0165 158.865 64.6541 158.78 64.4389 158.536L64.4446 158.547Z" fill="#ECB350" stroke="#ECB350" stroke-miterlimit="10"/>
<path d="M57.2822 147.369C56.8858 147.284 56.6254 146.893 56.7046 146.496C56.7839 146.088 57.1746 145.821 57.5822 145.895L69.1497 148.089C69.5234 148.179 69.8235 148.559 69.7499 148.967C69.6706 149.376 69.2799 149.642 68.8722 149.568L57.3048 147.375H57.2878L57.2822 147.369Z" fill="#ECB350" stroke="#ECB350" stroke-miterlimit="10"/>
<path d="M26.4301 87.6558L0 104.775C0 104.775 2.24215 111.311 6.42069 114.99C10.5992 118.669 14.8344 120.018 14.8344 120.018L35.0307 95.5918L26.4358 87.6558H26.4301Z" fill="white"/>
<path d="M133.889 44.1039C129.563 40.9124 121.268 44.3249 119.751 44.9938C125.073 42.511 127.485 35.635 123.845 33.1124C122.673 32.3018 120.147 31.2645 115.301 32.9991C113.194 33.753 110.573 35.1475 107.153 37.1428C106.123 37.7437 105.166 38.3842 104.271 39.0531C86.0621 51.7735 93.066 60.5938 91.0051 70.8994C88.8422 81.7151 76.5274 82.3386 76.5274 82.3386L55.7083 74.2042C55.7083 74.2042 89.3121 113.278 111.4 86.7261C114.582 82.9055 116.801 78.5237 118.064 74.4479C118.262 73.8017 118.443 73.1612 118.602 72.5206C120.487 80.366 121.891 81.8795 123.307 81.8455C124.399 81.8228 125.923 80.3263 126.664 78.3196C130.797 67.1184 126.998 59.9816 123.392 56.0249C132.19 55.0273 135.157 50.6624 135.565 48.2986C135.848 46.6831 135.203 45.0619 133.883 44.0869L133.889 44.1039Z" fill="#47413F"/>
<path d="M86.0848 29.6945L90.0425 28.9973C92.6924 28.5324 95.1044 27.1776 96.8822 25.154L98.9602 22.7901C99.3169 22.3877 98.9658 21.7585 98.4393 21.8492L85.1562 24.0542L86.0905 29.7002L86.0848 29.6945Z" fill="#ECB350"/>
<g style="mix-blend-mode:multiply">
<path d="M86.0848 29.6945L90.0425 28.9973C92.6924 28.5324 95.1044 27.1776 96.8822 25.154L98.9602 22.7901C99.3169 22.3877 98.9658 21.7585 98.4393 21.8492L85.1562 24.0542L86.0905 29.7002L86.0848 29.6945Z" fill="#ECB350"/>
</g>
<path d="M88.6836 18.2153L92.6526 17.5974C95.3081 17.1836 98.0315 17.6881 100.364 19.0259L103.093 20.5904C103.558 20.8568 103.433 21.5654 102.901 21.6504L89.6178 23.8555L88.6836 18.2096V18.2153Z" fill="#ECB350"/>
<path d="M19.0864 88.6251C31.8202 86.0742 52.192 79.612 57.6785 53.3607C57.7181 53.1736 57.6389 52.9866 57.6162 52.7995C57.5936 52.6294 57.5653 52.4594 57.537 52.2837C57.537 52.2837 52.6337 22.9826 52.5601 22.5461C50.8162 11.9855 57.9503 2.01442 68.4929 0.262815C79.0355 -1.48312 89.0006 5.65366 90.7445 16.2086C90.8634 16.9399 90.937 17.6654 90.9766 18.391C92.2279 25.6865 96.5027 50.6681 98.6769 65.038C100.953 80.0428 104.922 118.606 69.3139 119.264C50.4934 119.61 36.2932 112.292 25.7506 104.934C25.7506 104.962 25.7506 104.979 25.7506 104.979" fill="white"/>
<path d="M45.6638 48.089C54.3719 43.1007 65.3562 48.4462 66.9981 58.3549C67.8814 63.7004 67.2586 71.0923 62.6158 80.7912C51.2635 104.497 44.0954 99.1519 43.3197 95.1158C43.3197 95.1158 37.788 106.986 32.6865 104.906C27.5907 102.825 30.6539 94.1862 30.6539 94.1862C30.6539 94.1862 27.2567 104.463 20.6944 101.924C14.1322 99.3843 19.0468 86.3805 24.9069 74.3971C28.8081 66.4213 36.2083 53.5082 45.6581 48.0947L45.6638 48.089Z" fill="#47413F"/>
<path d="M80.2644 14.3038C80.2644 14.3038 83.9843 11.1691 87.9987 13.0227" stroke="black" stroke-width="3" stroke-linecap="round" stroke-linejoin="round"/>
<path d="M82.1495 13.9919C82.6195 16.8433 81.0002 19.4848 78.5372 19.893C76.0686 20.3011 73.6849 18.3228 73.2149 15.4715C72.745 12.6201 74.3643 9.97857 76.8273 9.57043C79.2959 9.16229 81.6796 11.1406 82.1495 13.9919Z" fill="black"/>
<path d="M95.5573 11.7698C96.0272 14.6211 94.4079 17.2627 91.9449 17.6708C89.4763 18.0789 87.0926 16.1006 86.6227 13.2493C86.1527 10.398 87.772 7.7564 90.235 7.34826C92.7036 6.94012 95.0873 8.91846 95.5573 11.7698Z" fill="black"/>
<path d="M124.53 118.816C124.853 121.033 125.413 122.949 126.143 124.593C127.304 127.217 128.89 129.173 130.611 130.601C130.883 130.828 131.16 131.038 131.437 131.236C133.561 132.761 135.82 133.56 137.722 133.884C138.317 133.986 138.923 134.059 139.54 134.105C139.817 134.122 140.089 134.139 140.372 134.144C143.384 134.201 146.657 133.436 150.213 131.112C150.535 130.902 150.864 130.675 151.192 130.437C152.138 129.751 153.1 128.958 154.085 128.034C155.812 126.418 157.426 124.899 158.983 123.538C159.193 123.351 159.413 123.187 159.611 122.994C167.742 115.234 174.491 117.399 176.263 118.153C177.803 118.805 179.31 119.905 180.102 121.107C180.102 121.107 185.832 128.493 177.35 135.363C177.35 135.363 184.53 125.505 176.445 120.398C176.292 120.307 175.675 120.041 175.273 119.871C175.04 119.769 174.803 119.678 174.559 119.616C172.996 119.185 171.224 119.196 169.248 119.667C168.948 119.74 168.642 119.82 168.331 119.916C167.844 120.064 167.351 120.234 166.842 120.432C164.424 121.379 162.346 123 160.421 124.814C160.189 125.035 159.951 125.245 159.73 125.477C149.714 136.094 143.741 136.894 139.749 136.82C139.46 136.82 139.166 136.803 138.866 136.78C136.669 136.61 134.28 135.941 131.607 134.535C131.041 134.241 130.515 133.923 130.022 133.594C129.716 133.39 129.422 133.181 129.139 132.96C126.551 130.981 124.966 128.583 123.998 126.543C122.803 124.02 122.559 122.036 122.559 122.036C122.559 122.036 121.614 118.403 124.541 118.816H124.53Z" fill="#E6AFA4"/>
<path d="M125.787 100.66C125.787 100.66 120.974 79.5837 99.198 70.1171C99.198 70.1171 90.1105 65.911 85.4903 70.9107C82.6424 73.9944 82.314 80.0598 86.2491 84.1299C92.4489 90.5354 100.614 90.0026 113.347 102.491L125.787 100.66Z" fill="#AF9E8A"/>
<path d="M169.581 63.5349C179.212 55.3021 180.817 41.3533 173.164 32.3795C165.511 23.4057 151.5 22.8051 141.868 31.0379C132.236 39.2708 130.632 53.2195 138.285 62.1933C145.938 71.1671 159.949 71.7678 169.581 63.5349Z" fill="#AF9E8A"/>
<path d="M153.536 63.7797L149.346 62.4306C149.346 62.4306 154.181 50.4585 161.87 44.036C171.501 35.8051 185.515 36.4003 193.164 45.3737C200.814 54.3472 199.211 68.2976 189.58 76.5284C188.131 77.7699 186.579 78.8072 184.966 79.6462C172.153 86.3295 160.166 80.4738 154.765 77.22C145.949 71.9142 149.425 68.3316 153.91 66.2512C153.74 65.435 153.61 64.6017 153.536 63.7684V63.7797Z" fill="#D8CFC4"/>
<path d="M158.168 61.4275C158.168 61.4275 161.406 53.412 166.553 49.1152C173.002 43.6053 182.384 44.0021 187.502 50.0109C192.626 56.0196 191.551 65.3558 185.102 70.8657C184.128 71.6933 183.092 72.3905 182.01 72.9517C173.432 77.4243 164.634 74.4426 161.021 72.2658C155.121 68.7116 158.168 61.4218 158.168 61.4218V61.4275Z" fill="#E5AEA3"/>
<path d="M106.694 58.3154C106.694 58.3154 89.6971 64.7832 101.57 77.0388C113.443 89.2943 142.138 99.7812 149.454 99.7756C156.769 99.7699 163.059 94.2373 164.854 88.1493C166.649 82.0612 166.921 69.7093 154.997 62.1077C143.073 54.5117 123.771 50.5494 106.694 58.3154Z" fill="#D8CFC4"/>
<path d="M97.2332 70.384C99.541 70.384 101.412 68.511 101.412 66.2005C101.412 63.8901 99.541 62.0171 97.2332 62.0171C94.9255 62.0171 93.0547 63.8901 93.0547 66.2005C93.0547 68.511 94.9255 70.384 97.2332 70.384Z" fill="#E5AEA3"/>
<path d="M119.315 67.4587C119.315 67.4587 120.782 65.418 123.658 66.376C126.817 67.4303 126.483 70.1456 126.483 70.1456" stroke="#493F34" stroke-width="3" stroke-linecap="round" stroke-linejoin="round"/>
<path d="M104.385 75.0889C104.385 75.0889 107.81 78.3483 114.078 78.2519" stroke="#493F34" stroke-width="3" stroke-linecap="round" stroke-linejoin="round"/>
<path d="M107.057 117.223C107.057 117.223 105.664 124.751 103.909 130.448C102.601 134.688 101.033 138.928 99.5321 140.827C99.5321 140.827 93.0095 139.62 91.2033 144.336C89.3972 149.052 91.2373 154.432 100.059 155.974C108.874 157.516 112.289 155.39 116.393 145.476C118.794 139.671 118.488 132.307 122.525 125.522L107.057 117.229V117.223Z" fill="#AF9E8A"/>
<path d="M127.836 96.8221C127.836 96.8221 131.103 118.193 152.132 129.224C152.132 129.224 160.885 134.082 165.862 129.434C168.931 126.565 169.695 120.54 166.072 116.197C160.359 109.355 152.172 109.293 140.383 95.9038L127.842 96.8165L127.836 96.8221Z" fill="#D9D0C5"/>
<path d="M141.17 93.1092L118.137 86.647C118.137 86.647 107.719 95.4106 106.213 107.989C105.494 113.992 107.085 118.346 109.327 121.43C111.609 124.576 114.836 126.752 118.381 127.767C121.936 128.748 125.82 128.561 129.405 127.064C132.921 125.596 136.539 122.705 139.036 117.201C144.279 105.671 141.176 93.1149 141.176 93.1149L141.17 93.1092Z" fill="#D8CFC4"/>
<path d="M136.522 121.464C136.522 121.464 136.159 129.111 136.567 135.057C136.873 139.484 137.433 143.974 138.458 146.167C138.458 146.167 145.083 146.485 145.762 151.485C146.442 156.49 143.424 161.303 134.489 160.787C125.555 160.271 122.718 157.42 120.985 146.825C119.972 140.624 121.954 133.526 119.57 125.993L136.522 121.458V121.464Z" fill="#D9D0C5"/>
</svg>
