<svg width="224" height="224" viewBox="0 0 224 224" fill="none" xmlns="http://www.w3.org/2000/svg">
<g id="&#237;&#154;&#140;&#236;&#155;&#144;&#234;&#176;&#128;&#236;&#158;&#133;" clip-path="url(#clip0_637_2793)">
<g id="Group">
<g id="&#235;&#160;&#136;&#236;&#157;&#180;&#236;&#150;&#180; 2">
<g id="&#235;&#160;&#136;&#236;&#157;&#180;&#236;&#150;&#180; 1">
<g id="Clip path group">
<mask id="mask0_637_2793" style="mask-type:luminance" maskUnits="userSpaceOnUse" x="-14" y="-29" width="253" height="253">
<g id="clippath">
<path id="Vector" d="M112.5 224C182.364 224 239 167.364 239 97.5C239 27.636 182.364 -29 112.5 -29C42.636 -29 -14 27.636 -14 97.5C-14 167.364 42.636 224 112.5 224Z" fill="white"/>
</g>
</mask>
<g mask="url(#mask0_637_2793)">
<g id="Group_2">
<g id="Group_3">
<g id="bubble 8">
<path id="Vector_2" d="M182.02 68.8328C182.02 50.651 167.283 35.9137 149.101 35.9137C146.315 35.9137 143.606 36.2647 141.022 36.9174C134.567 27.8512 123.976 21.9277 111.997 21.9277C100.019 21.9277 89.4279 27.8512 82.9724 36.9174C80.3891 36.2647 77.6797 35.9137 74.8934 35.9137C56.7117 35.9137 41.9744 50.651 41.9744 68.8328C41.9744 75.8312 44.1682 82.3196 47.8923 87.6507C44.1682 92.9873 41.9744 99.4702 41.9744 106.469C41.9744 124.65 56.7117 139.388 74.8934 139.388C77.6797 139.388 80.3891 139.037 82.9724 138.384C89.4279 147.45 100.019 153.374 111.997 153.374C123.976 153.374 134.567 147.45 141.022 138.384C143.606 139.037 146.315 139.388 149.101 139.388C167.283 139.388 182.02 124.65 182.02 106.469C182.02 99.4702 179.826 92.9818 176.102 87.6507C179.826 82.3141 182.02 75.8312 182.02 68.8328Z" fill="#5DD3DE"/>
</g>
<path id="Vector_3" d="M47.6455 157.323C52.792 157.323 56.964 153.15 56.964 148.004C56.964 142.858 52.792 138.686 47.6455 138.686C42.4991 138.686 38.327 142.858 38.327 148.004C38.327 153.15 42.4991 157.323 47.6455 157.323Z" fill="#5DD3DE"/>
<path id="Vector_4" d="M62.4432 168.067C65.2512 168.067 67.5275 165.791 67.5275 162.983C67.5275 160.175 65.2512 157.898 62.4432 157.898C59.6352 157.898 57.3589 160.175 57.3589 162.983C57.3589 165.791 59.6352 168.067 62.4432 168.067Z" fill="#5DD3DE"/>
<g id="Group_4">
<path id="Vector_5" d="M82.21 90.9468L73.1054 64.4174C73.0176 64.1706 73.0835 63.7208 73.237 63.5124L77.6796 57.408L76.8185 56.7827L72.3759 62.8872C72.0139 63.3863 71.8988 64.198 72.1072 64.7794L81.2118 91.3088L82.2155 90.9468H82.21Z" fill="#4F2287"/>
<path id="Vector_6" d="M88.6655 88.4237C88.7093 88.3086 88.7532 88.1879 88.7916 88.0727C88.8135 88.0124 88.83 87.952 88.8465 87.8917C88.8794 87.7875 88.9123 87.6833 88.9397 87.5791C88.9561 87.5133 88.9726 87.4529 88.9891 87.3871C89.0165 87.2829 89.0439 87.1787 89.0658 87.0745C89.0823 87.0142 89.0933 86.9538 89.1097 86.888C89.1371 86.7728 89.1591 86.6577 89.181 86.5425C89.192 86.4931 89.203 86.4438 89.2084 86.3944C89.2359 86.2299 89.2633 86.0653 89.2797 85.9008C89.2797 85.8734 89.2852 85.8459 89.2907 85.8185C89.3072 85.6814 89.3236 85.5443 89.3346 85.4072C89.3346 85.3468 89.3401 85.292 89.3456 85.2316C89.351 85.1219 89.3565 85.0177 89.362 84.908C89.362 84.8422 89.362 84.7819 89.362 84.7161C89.362 84.6119 89.362 84.5077 89.362 84.4089C89.362 84.3431 89.362 84.2828 89.362 84.217C89.362 84.1073 89.3565 84.0031 89.3456 83.8934C89.3456 83.8385 89.3456 83.7782 89.3346 83.7234C89.3236 83.5862 89.3127 83.4436 89.2962 83.3065C89.2962 83.2846 89.2962 83.2572 89.2907 83.2352C89.2743 83.0762 89.2468 82.9116 89.2249 82.7526C89.2139 82.7032 89.2084 82.6484 89.1975 82.599C89.1755 82.4893 89.1591 82.3796 89.1371 82.2699C89.1262 82.2096 89.1097 82.1493 89.0987 82.0889C89.0768 81.9902 89.0549 81.8915 89.0275 81.7928C89.011 81.7324 88.9945 81.6666 88.9781 81.6063C88.9507 81.5075 88.9232 81.4088 88.8903 81.3101C88.8739 81.2498 88.8574 81.1949 88.8355 81.1346C88.7971 81.0249 88.7587 80.9152 88.7203 80.8055C88.7038 80.7616 88.6874 80.7177 88.6709 80.6739C88.6161 80.5258 88.5558 80.3722 88.4899 80.2241C88.4735 80.1857 88.457 80.1473 88.4351 80.1089C88.3857 79.9993 88.3364 79.8896 88.2815 79.7799C88.2541 79.725 88.2267 79.6702 88.1993 79.6153C88.1499 79.5221 88.106 79.4343 88.0567 79.3411C88.0238 79.2862 87.9908 79.2259 87.9579 79.1711C87.9086 79.0833 87.8537 78.9956 87.8044 78.9078C87.7715 78.853 87.7385 78.7981 87.7002 78.7433C87.6398 78.65 87.5795 78.5623 87.5192 78.469C87.4863 78.4252 87.4588 78.3758 87.4259 78.3319C87.3327 78.2003 87.234 78.0687 87.1297 77.937C86.5758 77.235 85.9231 76.5878 85.1717 76.0229C83.0711 74.4378 81.4531 72.9843 79.8296 70.6753L68.0924 76.2368C68.8164 78.8968 68.9809 81.1785 68.8767 83.7398C68.8383 84.6832 68.9261 85.5991 69.1235 86.4767C69.1564 86.6357 69.2003 86.7893 69.2387 86.9484C69.2552 87.0032 69.2716 87.058 69.2881 87.1129C69.3155 87.2171 69.3484 87.3213 69.3813 87.42C69.4032 87.4804 69.4252 87.5462 69.4471 87.6065C69.48 87.6998 69.5129 87.793 69.5513 87.8862C69.5733 87.9466 69.6007 88.0124 69.6226 88.0727C69.661 88.166 69.6994 88.2592 69.7433 88.3524C69.7707 88.4073 69.7927 88.4676 69.8201 88.5225C69.8694 88.6321 69.9188 88.7364 69.9737 88.8406C69.9956 88.879 70.012 88.9228 70.034 88.9612C70.1053 89.1038 70.1821 89.2464 70.2643 89.3836C70.2863 89.4274 70.3137 89.4658 70.3356 89.5042C70.396 89.6029 70.4508 89.7017 70.5166 89.8004C70.5495 89.8552 70.5825 89.9046 70.6208 89.954C70.6757 90.0362 70.736 90.124 70.7909 90.2063C70.8293 90.2611 70.8677 90.3105 70.906 90.3653C70.9664 90.4476 71.0267 90.5244 71.087 90.6066C71.1254 90.656 71.1638 90.7054 71.2022 90.7547C71.2735 90.8425 71.3393 90.9247 71.4106 91.007C71.4435 91.0454 71.4819 91.0893 71.5148 91.1277C71.6191 91.2483 71.7288 91.369 71.8439 91.4842C71.8604 91.5006 71.8823 91.5226 71.8988 91.539C71.992 91.6378 72.0907 91.731 72.1895 91.8297C72.2333 91.8681 72.2772 91.9065 72.3156 91.9449C72.3924 92.0162 72.4747 92.0875 72.5515 92.1588C72.6008 92.2027 72.6502 92.2411 72.6995 92.2849C72.7763 92.3508 72.8586 92.4166 72.9354 92.4769C72.9847 92.5153 73.0396 92.5592 73.089 92.5976C73.1767 92.6634 73.259 92.7237 73.3467 92.7895C73.3961 92.8224 73.44 92.8554 73.4893 92.8937C73.6045 92.9705 73.7142 93.0473 73.8349 93.1186C73.8568 93.1351 73.8842 93.1515 73.9062 93.168C74.0488 93.2557 74.1914 93.338 74.334 93.4203C74.3779 93.4477 74.4217 93.4696 74.4711 93.4916C74.5753 93.5464 74.674 93.6013 74.7782 93.6561C74.8331 93.6835 74.8934 93.711 74.9483 93.7384C75.047 93.7878 75.1402 93.8316 75.2389 93.8755C75.2993 93.9029 75.3596 93.9304 75.4199 93.9578C75.5187 94.0017 75.6174 94.04 75.7216 94.0839C75.7819 94.1059 75.8368 94.1333 75.8971 94.1552C76.0123 94.1991 76.133 94.243 76.2481 94.2814C76.292 94.2978 76.3359 94.3143 76.3853 94.3307C76.5498 94.3856 76.7143 94.4349 76.8789 94.4843C76.9173 94.4953 76.9557 94.5062 76.9941 94.5172C77.1257 94.5556 77.2573 94.5885 77.389 94.6214C77.4493 94.6379 77.5041 94.6488 77.5645 94.6598C77.6741 94.6872 77.7893 94.7092 77.899 94.7311C77.9155 94.7311 77.9374 94.7366 77.9539 94.7421C78.0032 94.7531 78.0471 94.7585 78.0965 94.764C78.2062 94.786 78.3213 94.8024 78.431 94.8189C78.431 94.8189 78.4365 94.8189 78.442 94.8189C78.4749 94.8189 78.5078 94.8298 78.5352 94.8353C78.5682 94.8353 78.6011 94.8408 78.634 94.8463C78.7546 94.8627 78.8753 94.8737 78.996 94.8847C79.0014 94.8847 79.0124 94.8847 79.0179 94.8847C79.0563 94.8847 79.0892 94.8957 79.1221 94.8957C79.1386 94.8957 79.155 94.8957 79.1715 94.8957C79.347 94.9121 79.528 94.9231 79.709 94.9286C79.709 94.9286 79.7145 94.9286 79.7199 94.9286C80.2355 94.9505 80.7565 94.9286 81.2666 94.8518C82.1222 94.7311 82.9614 94.4788 83.7512 94.1059C84.5958 93.7055 85.3692 93.1625 86.0383 92.5208C86.3674 92.2082 86.669 91.8681 86.9433 91.5061C86.9433 91.5061 86.9433 91.5006 86.9488 91.5006C87.0584 91.358 87.1627 91.21 87.2614 91.0619C87.2724 91.0454 87.2833 91.0344 87.2888 91.018C87.3107 90.9906 87.3272 90.9577 87.3491 90.9302C87.3491 90.9247 87.3546 90.9193 87.3601 90.9083C87.4259 90.8041 87.4917 90.7054 87.5576 90.6012C87.574 90.5737 87.5959 90.5463 87.6124 90.5189C87.6289 90.4915 87.6453 90.464 87.6618 90.4366C87.6618 90.4366 87.6618 90.4366 87.6618 90.4311C87.7221 90.3324 87.7769 90.2392 87.8318 90.1404C87.8537 90.0966 87.8812 90.0582 87.9031 90.0143C87.9141 89.9978 87.9195 89.9814 87.9305 89.9649C87.9305 89.9649 87.9305 89.9649 87.9305 89.9594C87.9854 89.8607 88.0402 89.7565 88.0896 89.6523C88.117 89.5975 88.1444 89.5481 88.1718 89.4932C88.2322 89.3726 88.287 89.2464 88.3419 89.1203C88.3583 89.0874 88.3748 89.049 88.3912 89.0161C88.4625 88.857 88.5229 88.698 88.5832 88.5389C88.5996 88.495 88.6161 88.4512 88.6326 88.4073L88.6655 88.4237Z" fill="white"/>
<path id="Vector_7" opacity="0.8" d="M77.1639 63.694L64.713 69.5928L68.2894 77.1416L80.7403 71.2428L77.1639 63.694Z" fill="#AFDBF8"/>
<path id="Vector_8" d="M88.0621 88.0181C88.1005 87.9029 88.1389 87.7877 88.1718 87.6726C88.1882 87.6122 88.2047 87.5574 88.2212 87.497C88.2486 87.3928 88.276 87.2941 88.3034 87.1899C88.3199 87.1296 88.3363 87.0638 88.3473 87.0034C88.3692 86.8992 88.3912 86.8005 88.4131 86.6963C88.4241 86.6359 88.4405 86.5756 88.4515 86.5153C88.4735 86.4001 88.4899 86.2904 88.5064 86.1752C88.5118 86.1259 88.5228 86.0765 88.5283 86.0271C88.5502 85.8681 88.5722 85.7036 88.5886 85.539C88.5886 85.5116 88.5886 85.4842 88.5941 85.4567C88.6051 85.3196 88.6161 85.188 88.6215 85.0509C88.6215 84.996 88.6215 84.9357 88.627 84.8808C88.627 84.7766 88.6325 84.6669 88.638 84.5627C88.638 84.5024 88.638 84.4366 88.638 84.3708C88.638 84.2666 88.638 84.1678 88.6325 84.0636C88.6325 84.0033 88.6325 83.9375 88.627 83.8771C88.627 83.7729 88.6161 83.6632 88.6051 83.559C88.6051 83.5042 88.5996 83.4493 88.5941 83.389C88.5831 83.2519 88.5667 83.1148 88.5502 82.9777C88.5502 82.9557 88.5502 82.9283 88.5393 82.9064C88.5173 82.7473 88.4899 82.5882 88.4625 82.4292C88.4515 82.3798 88.4405 82.325 88.4351 82.2756C88.4131 82.1659 88.3912 82.0562 88.3692 81.952C88.3583 81.8917 88.3418 81.8314 88.3254 81.771C88.3034 81.6723 88.276 81.5736 88.2486 81.4749C88.2321 81.4145 88.2157 81.3542 88.1992 81.2884C88.1718 81.1897 88.1389 81.0909 88.1115 80.9922C88.095 80.9319 88.0731 80.877 88.0566 80.8167C88.0182 80.707 87.9798 80.5973 87.9414 80.4876C87.925 80.4437 87.9085 80.3999 87.8921 80.356C87.8317 80.2079 87.7714 80.0598 87.7111 79.9117C87.6946 79.8733 87.6727 79.8349 87.6562 79.7965C87.6069 79.6869 87.5575 79.5772 87.5027 79.4675C87.4752 79.4126 87.4478 79.3578 87.4204 79.3029C87.371 79.2097 87.3272 79.1219 87.2778 79.0287C87.2449 78.9738 87.212 78.9135 87.1846 78.8587C87.1352 78.7709 87.0803 78.6832 87.031 78.5954C86.9981 78.5406 86.9652 78.4857 86.9323 78.4309C86.8719 78.3376 86.8116 78.2499 86.7513 78.1566C86.7184 78.1127 86.6909 78.0634 86.658 78.014C86.5648 77.8824 86.4715 77.7453 86.3673 77.6191C85.8244 76.9116 85.1881 76.2589 84.4587 75.6775C82.4238 74.065 80.8497 72.5842 79.2537 70.2642L68.224 75.4911C68.9754 78.1402 69.1838 80.3999 69.1454 82.9283C69.129 83.8607 69.2332 84.7712 69.4416 85.6377C69.48 85.7968 69.5184 85.9504 69.5623 86.1039C69.5787 86.1588 69.5952 86.2136 69.6116 86.2685C69.6445 86.3727 69.672 86.4714 69.7103 86.5756C69.7323 86.6359 69.7542 86.7018 69.7762 86.7621C69.8091 86.8553 69.842 86.9486 69.8804 87.0418C69.9023 87.1021 69.9297 87.168 69.9517 87.2283C69.9901 87.3215 70.0285 87.4148 70.0723 87.508C70.0998 87.5629 70.1217 87.6232 70.1491 87.678C70.1985 87.7877 70.2478 87.8919 70.3027 87.9961C70.3246 88.0345 70.3411 88.0784 70.363 88.1168C70.4343 88.2594 70.5111 88.402 70.5934 88.5391C70.6153 88.583 70.6427 88.6214 70.6647 88.6598C70.725 88.7585 70.7799 88.8572 70.8402 88.956C70.8731 89.0108 70.906 89.0602 70.9389 89.115C70.9938 89.1973 71.0486 89.285 71.1089 89.3673C71.1473 89.4222 71.1857 89.4715 71.2241 89.5264C71.2845 89.6086 71.3393 89.6909 71.4051 89.7677C71.4435 89.8171 71.4819 89.8664 71.5203 89.9158C71.5861 90.0035 71.6574 90.0858 71.7287 90.1681C71.7616 90.2065 71.7945 90.2503 71.8329 90.2887C71.9371 90.4094 72.0413 90.5301 72.151 90.6453C72.1675 90.6617 72.1894 90.6836 72.2059 90.7001C72.2991 90.7988 72.3924 90.8975 72.4911 90.9908C72.5295 91.0292 72.5734 91.0676 72.6172 91.1114C72.694 91.1827 72.7708 91.254 72.8476 91.3253C72.897 91.3692 72.9408 91.4076 72.9902 91.4515C73.067 91.5173 73.1438 91.5831 73.2205 91.6489C73.2699 91.6873 73.3193 91.7312 73.3686 91.7696C73.4509 91.8354 73.5332 91.9012 73.6209 91.9616C73.6648 91.9945 73.7142 92.0329 73.758 92.0658C73.8677 92.1481 73.9774 92.2248 74.0871 92.2961C74.1091 92.3126 74.131 92.329 74.1584 92.3455C74.2955 92.4333 74.4327 92.521 74.5698 92.6088C74.6137 92.6362 74.6575 92.6581 74.7014 92.6856C74.8001 92.7459 74.8989 92.8007 74.9976 92.8556C75.0524 92.883 75.1073 92.9159 75.1621 92.9433C75.2554 92.9927 75.3486 93.0421 75.4418 93.0859C75.5022 93.1134 75.557 93.1408 75.6174 93.1682C75.7106 93.2121 75.8093 93.256 75.908 93.2998C75.9629 93.3218 76.0177 93.3492 76.0781 93.3711C76.1878 93.4205 76.3029 93.4644 76.4126 93.5028C76.4565 93.5192 76.5004 93.5357 76.5443 93.5521C76.6978 93.607 76.8569 93.6618 77.0159 93.7167C77.0543 93.7276 77.0872 93.7386 77.1256 93.7496C77.2518 93.788 77.3779 93.8264 77.5041 93.8593C77.5589 93.8757 77.6138 93.8867 77.6741 93.9032C77.7783 93.9306 77.888 93.958 77.9977 93.9799C78.0142 93.9799 78.0361 93.9909 78.0526 93.9909C78.0964 94.0019 78.1403 94.0074 78.1897 94.0183C78.2939 94.0403 78.4036 94.0622 78.5078 94.0787C78.5078 94.0787 78.5133 94.0787 78.5188 94.0787C78.5517 94.0787 78.5791 94.0896 78.612 94.0951C78.6449 94.0951 78.6723 94.1061 78.7052 94.1116C78.8204 94.128 78.9356 94.1445 79.0508 94.1609C79.0563 94.1609 79.0617 94.1609 79.0727 94.1609C79.1056 94.1609 79.1385 94.1719 79.1769 94.1774C79.1934 94.1774 79.2098 94.1774 79.2263 94.1774C79.3963 94.1993 79.5663 94.2103 79.7364 94.2267C79.7364 94.2267 79.7418 94.2267 79.7473 94.2267C80.2409 94.2597 80.7291 94.2487 81.2172 94.1884C82.029 94.0896 82.8242 93.8593 83.5647 93.5083C84.3599 93.1298 85.0839 92.6142 85.7037 91.9945C86.0108 91.6928 86.2905 91.3637 86.5428 91.0127C86.5428 91.0127 86.5428 91.0127 86.5428 91.0072C86.6416 90.8646 86.7348 90.7275 86.828 90.5794C86.839 90.5685 86.8445 90.552 86.8555 90.541C86.8719 90.5136 86.8884 90.4807 86.9103 90.4533C86.9103 90.4478 86.9158 90.4423 86.9213 90.4368C86.9816 90.3381 87.0419 90.2394 87.1023 90.1407C87.1187 90.1132 87.1352 90.0858 87.1516 90.0584C87.1681 90.031 87.1791 90.0035 87.1955 89.9761C87.1955 89.9761 87.1955 89.9761 87.1955 89.9706C87.2504 89.8774 87.2997 89.7787 87.3491 89.6854C87.371 89.647 87.393 89.6032 87.4149 89.5648C87.4204 89.5483 87.4314 89.5319 87.4368 89.5154C87.4368 89.5154 87.4368 89.5154 87.4368 89.5099C87.4862 89.4112 87.5356 89.3125 87.5794 89.2137C87.6014 89.1589 87.6288 89.1095 87.6507 89.0547C87.7056 88.934 87.755 88.8134 87.8043 88.6927C87.8208 88.6598 87.8317 88.6214 87.8482 88.5885C87.9085 88.4349 87.9689 88.2759 88.0237 88.1168C88.0402 88.0729 88.0511 88.0291 88.0676 87.9852L88.0621 88.0181Z" fill="url(#paint0_linear_637_2793)"/>
<g id="Group_5">
<path id="Vector_9" d="M71.5258 68.3994C70.5934 69.1618 69.8694 70.2039 69.4965 71.4489C68.5092 74.7562 70.3905 78.2335 73.6977 79.2207C75.7545 79.835 77.8826 79.3359 79.4347 78.0744L71.5313 68.3994H71.5258Z" fill="#EDB937"/>
<path id="Vector_10" d="M72.2389 69.2715C71.471 69.8967 70.8787 70.7523 70.577 71.7725C69.7707 74.4819 71.3119 77.3395 74.0214 78.1457C75.7107 78.6503 77.4548 78.2389 78.7218 77.2078L72.2389 69.2715Z" fill="#FFF0C9"/>
<path id="Vector_11" d="M71.7891 72.2005C72.1511 72.1786 75.1019 73.2975 75.1019 73.2975C75.1019 73.2975 72.6447 75.2774 72.2937 75.3652C71.9427 75.4584 71.3778 75.2719 71.1639 73.9227C70.95 72.5735 71.4271 72.2225 71.7891 72.2005Z" fill="#EDB937"/>
<path id="Vector_12" d="M73.9006 77.3123C75.1731 77.8059 75.6173 77.411 75.7161 77.0654C75.8148 76.7199 75.3431 73.5991 75.3431 73.5991C75.3431 73.5991 72.8915 75.5846 72.7269 75.9082C72.5624 76.2318 72.6282 76.8241 73.9006 77.3177V77.3123Z" fill="#EDB937"/>
<path id="Vector_13" d="M75.7271 73.5386C75.7271 73.5386 76.2042 76.6594 76.4017 76.961C76.5991 77.2627 77.1421 77.5095 78.2061 76.6594C78.2226 76.6484 78.2335 76.6374 78.25 76.621L75.7271 73.5386Z" fill="#EDB937"/>
<path id="Vector_14" d="M72.716 69.853C71.7069 70.6812 71.8165 71.2461 72.0634 71.5039C72.3047 71.7507 74.9812 72.8312 75.228 72.9245L72.716 69.853Z" fill="#EDB937"/>
</g>
<g id="Group_6">
<path id="Vector_15" d="M81.2009 78.5186C82.3581 78.8641 83.4222 79.5497 84.2449 80.5589C86.4223 83.2354 86.0164 87.1679 83.3399 89.3453C81.6725 90.7 79.5171 91.0565 77.6029 90.4806L81.2009 78.5186Z" fill="#EDB937"/>
<path id="Vector_16" d="M80.8773 79.5938C81.8261 79.879 82.6982 80.4384 83.3728 81.2666C85.1608 83.4605 84.8262 86.6854 82.6324 88.4735C81.2667 89.5868 79.5006 89.8775 77.9265 89.4059L80.8773 79.5938Z" fill="#FFF0C9"/>
<path id="Vector_17" d="M82.4129 82.1275C82.0729 82.2427 79.7748 84.4091 79.7748 84.4091C79.7748 84.4091 82.8023 85.2976 83.1588 85.2428C83.5153 85.1934 83.9651 84.804 83.647 83.4767C83.3289 82.1494 82.753 82.0068 82.4129 82.1275Z" fill="#EDB937"/>
<path id="Vector_18" d="M82.4185 87.6617C81.4312 88.6051 80.8718 88.4131 80.6469 88.1279C80.422 87.8427 79.6652 84.7822 79.6652 84.7822C79.6652 84.7822 82.6927 85.6762 82.9669 85.9121C83.2412 86.1479 83.4057 86.7183 82.424 87.6617H82.4185Z" fill="#EDB937"/>
<path id="Vector_19" d="M79.2867 84.8697C79.2867 84.8697 80.0436 87.9357 79.9778 88.2867C79.9119 88.6432 79.5061 89.0765 78.1952 88.6981C78.1788 88.6981 78.1623 88.6871 78.1404 88.6816L79.2867 84.8643V84.8697Z" fill="#EDB937"/>
<path id="Vector_20" d="M80.6579 80.3121C81.9084 80.6851 82.0236 81.2555 81.892 81.5846C81.7658 81.9027 79.7036 83.9265 79.5171 84.1075L80.6579 80.3066V80.3121Z" fill="#EDB937"/>
</g>
<path id="Vector_21" d="M98.0552 105.816L93.119 107.56C92.0331 107.944 90.8319 107.445 90.3383 106.402L86.2083 97.6873C85.4679 96.1187 85.6928 94.2155 86.8994 92.9705C87.212 92.6524 87.4972 92.3068 87.7605 91.9339C91.6875 86.4053 90.7112 78.7103 85.4021 74.4926C81.8041 71.6351 79.0289 67.878 77.3506 63.6055L75.9245 64.2801C78.974 70.7191 81.0801 73.0007 84.4587 75.6827C89.1097 79.3794 90.0202 86.1311 86.5264 91.0508C85.7641 92.1203 84.7384 92.9869 83.5482 93.5464C82.3581 94.1058 81.0417 94.3581 79.7309 94.2703C73.7087 93.859 69.0577 88.8789 69.1455 82.939C69.2113 78.628 68.5751 75.1233 65.7285 69.1121L64.3025 69.7867C66.5457 73.7905 67.6975 78.3209 67.6262 82.9116C67.5275 89.6906 72.8641 95.3179 79.6267 95.7841C80.0819 95.817 80.5317 95.8115 80.9759 95.7731C82.7036 95.6305 84.3216 96.6562 85.062 98.2248L89.192 106.94C89.6856 107.982 89.3126 109.227 88.3254 109.825L83.8499 112.54C83.1753 112.951 82.9175 113.807 83.2576 114.52L91.6107 110.56L99.9639 106.6C99.6239 105.887 98.8012 105.541 98.0552 105.805V105.816Z" fill="white"/>
</g>
<g id="Group_7">
<path id="Vector_22" d="M113.22 82.6212C118.321 81.4694 122.276 73.1711 122.276 63.1012C122.276 60.0407 121.908 57.1448 121.261 54.5615H102.75C102.097 57.1448 101.735 60.0407 101.735 63.1012C101.735 73.204 105.717 81.5187 110.835 82.6321V98.982L102.799 102.799H121.042L113.226 99.0862V82.6212H113.22Z" fill="white"/>
<path id="Vector_23" d="M103.644 63.9624C103.644 64.1434 103.639 64.3189 103.639 64.5054C103.639 73.3467 107.385 80.5371 112.003 80.5371C116.621 80.5371 120.367 73.3357 120.367 64.4944C120.367 64.3134 120.367 64.1379 120.361 63.9624H103.65H103.644Z" fill="#8C384A"/>
</g>
<g id="Group_8">
<path id="Vector_24" opacity="0.8" d="M162.286 75.2608L136.854 63.6113L142.553 84.5573L162.286 75.2608Z" fill="#AFDBF8"/>
<path id="Vector_25" d="M138.313 68.9424L157.279 77.6301L142.563 84.5628L138.313 68.9424Z" fill="url(#paint1_linear_637_2793)"/>
<g id="Group_9">
<path id="Vector_26" d="M151.142 77.0212C152.635 77.0212 153.846 75.8106 153.846 74.3172C153.846 72.8239 152.635 71.6133 151.142 71.6133C149.648 71.6133 148.438 72.8239 148.438 74.3172C148.438 75.8106 149.648 77.0212 151.142 77.0212Z" fill="#E91D68"/>
<g id="Group_10">
<path id="Vector_27" d="M152.535 72.6447C152.644 72.5076 152.776 72.3541 152.919 72.195C153.226 71.8604 153.599 71.493 154.032 71.1364C154.246 70.9555 154.482 70.7854 154.717 70.6154C154.959 70.4509 155.211 70.2918 155.469 70.1492L155.661 70.0395L155.858 69.9408C155.99 69.8695 156.122 69.8146 156.253 69.7543C156.516 69.6336 156.78 69.5294 157.032 69.4417C157.29 69.3539 157.537 69.2771 157.778 69.2168C158.014 69.151 158.244 69.1071 158.453 69.0632C158.661 69.0303 158.853 68.9919 159.023 68.9755C159.193 68.959 159.341 68.9371 159.467 68.9316C159.714 68.9152 159.851 68.9097 159.851 68.9097C159.851 68.9097 159.714 68.9097 159.467 68.9206C159.347 68.9206 159.198 68.9371 159.023 68.9535C158.853 68.9645 158.661 68.9974 158.447 69.0248C158.239 69.0632 158.008 69.0961 157.767 69.1565C157.526 69.2113 157.273 69.2826 157.01 69.3649C156.752 69.4472 156.484 69.5459 156.215 69.6611C156.083 69.7159 155.946 69.7762 155.814 69.8421L155.611 69.9408L155.414 70.045C155.151 70.1821 154.893 70.3412 154.641 70.5002C154.394 70.6648 154.153 70.8348 153.928 71.0103C153.472 71.3613 153.083 71.7288 152.759 72.0634C152.595 72.2334 152.452 72.3979 152.326 72.546L152.524 72.6612L152.535 72.6447Z" fill="#3F3631"/>
<path id="Vector_28" d="M151.876 72.6061L152.107 72.3319C152.233 72.1783 152.387 72.0138 152.551 71.8383C152.94 71.4379 153.341 71.0704 153.752 70.7578C153.994 70.5658 154.257 70.3848 154.482 70.2367C154.718 70.0887 154.997 69.9132 155.282 69.7651L155.688 69.5621C155.803 69.5073 155.924 69.4524 156.045 69.4031L156.105 69.3757C156.368 69.266 156.643 69.1618 156.928 69.074C157.23 68.9808 157.482 68.9095 157.712 68.8601C157.899 68.8107 158.091 68.7778 158.255 68.7504L158.403 68.723C158.491 68.712 158.557 68.701 158.623 68.6956C158.76 68.6791 158.891 68.6572 159.012 68.6517L159.166 68.6407C159.281 68.6297 159.385 68.6243 159.473 68.6243L159.846 68.6133L159.873 69.2111L159.489 69.2331C159.407 69.2331 159.325 69.244 159.231 69.255L159.061 69.2769C158.952 69.2879 158.837 69.3044 158.71 69.3263C158.645 69.3373 158.573 69.3482 158.502 69.3592L158.365 69.3866C158.2 69.4195 158.036 69.4524 157.866 69.5018C157.646 69.5566 157.411 69.628 157.136 69.7212C156.878 69.8144 156.621 69.9132 156.379 70.0228L156.325 70.0448C156.215 70.0941 156.111 70.1435 156.001 70.1984L155.617 70.4068C155.354 70.5494 155.101 70.7194 154.888 70.862C154.674 71.0156 154.438 71.1856 154.224 71.3611C153.851 71.6628 153.489 72.0083 153.138 72.3922C152.995 72.5458 152.875 72.6939 152.765 72.8255L152.6 73.023L151.871 72.6006L151.876 72.6061Z" fill="#3F3631"/>
</g>
</g>
<path id="Vector_29" d="M140.03 109.178L135.23 106.348C134.304 105.805 133.953 104.637 134.408 103.655L141.253 88.9014C142.021 87.245 143.342 85.9122 144.988 85.1389L164.14 76.1166L162.275 75.2609L142.553 84.552L136.854 63.6115L134.989 62.7559L140.523 83.0876C141 84.8372 140.841 86.702 140.073 88.3529L133.229 103.107C132.773 104.088 131.649 104.577 130.634 104.231L125.353 102.443C124.585 102.18 123.735 102.553 123.389 103.293L132.022 107.248L140.655 111.202C141 110.456 140.732 109.579 140.03 109.162V109.178Z" fill="white"/>
</g>
</g>
<g id="Group_11">
<path id="Vector_30" d="M151.169 219.651C151.169 219.651 183.485 223.287 188.832 179.135L148.608 207.924L151.174 219.651H151.169Z" fill="#47413F"/>
<path id="Vector_31" d="M43.9104 220.205L4.92529 245.423C4.92529 245.423 8.22707 255.054 14.3973 260.473C20.5621 265.892 26.8037 267.877 26.8037 267.877L56.5855 231.898L43.9104 220.205Z" fill="white"/>
<g id="Group_12">
<path id="Vector_32" d="M131.885 134.819L137.721 133.793C141.626 133.108 145.185 131.111 147.807 128.133L150.873 124.65C151.394 124.058 150.884 123.131 150.105 123.263L130.514 126.51L131.89 134.824L131.885 134.819Z" fill="#ECB350"/>
<g id="Vector_33" style="mix-blend-mode:multiply">
<path d="M131.885 134.819L137.721 133.793C141.626 133.108 145.185 131.111 147.807 128.133L150.873 124.65C151.394 124.058 150.884 123.131 150.105 123.263L130.514 126.51L131.89 134.824L131.885 134.819Z" fill="#ECB350"/>
</g>
<path id="Vector_34" d="M135.719 117.904L141.571 116.994C145.492 116.385 149.502 117.131 152.941 119.1L156.966 121.409C157.652 121.804 157.465 122.84 156.687 122.972L137.095 126.219L135.719 117.904Z" fill="#ECB350"/>
</g>
<path id="Vector_35" d="M33.0728 221.631C51.8523 217.874 81.8974 208.352 89.9928 169.68C90.0477 169.406 89.9325 169.126 89.8996 168.852C89.8667 168.599 89.8283 168.347 89.7844 168.095C89.7844 168.095 82.5556 124.936 82.4459 124.289C79.8681 108.739 90.3877 94.046 105.937 91.4682C121.486 88.8904 136.179 99.41 138.757 114.959C138.938 116.034 139.042 117.109 139.103 118.173C140.951 128.923 147.253 165.72 150.461 186.891C153.813 208.994 159.67 265.804 107.154 266.77C79.3964 267.28 58.4504 256.497 42.9068 245.659C42.9068 245.703 42.9013 245.73 42.9013 245.73" fill="white"/>
<path id="Vector_36" d="M72.2717 161.914C85.1113 154.564 101.313 162.44 103.732 177.035C105.037 184.911 104.116 195.798 97.2654 210.091C80.5261 245.017 69.9517 237.141 68.8108 231.191C68.8108 231.191 60.6496 248.676 53.1301 245.615C45.6106 242.555 50.1355 229.825 50.1355 229.825C50.1355 229.825 45.1225 244.963 35.4475 241.222C25.7725 237.476 33.0123 218.323 41.6617 200.668C47.4151 188.92 58.3296 169.899 72.2662 161.919L72.2717 161.914Z" fill="#47413F"/>
<g id="Group_13">
<path id="Vector_37" d="M123.307 112.145C123.307 112.145 128.791 107.533 134.715 110.259" stroke="black" stroke-width="3" stroke-linecap="round" stroke-linejoin="round"/>
<g id="Group_14">
<path id="Vector_38" d="M126.088 111.685C126.784 115.886 124.398 119.78 120.756 120.383C117.115 120.987 113.599 118.069 112.908 113.868C112.211 109.666 114.597 105.772 118.239 105.169C121.881 104.566 125.396 107.483 126.088 111.685Z" fill="black"/>
<path id="Vector_39" d="M145.86 108.41C146.556 112.612 144.171 116.506 140.529 117.109C136.887 117.712 133.371 114.794 132.68 110.593C131.984 106.392 134.369 102.498 138.011 101.894C141.653 101.291 145.169 104.209 145.86 108.41Z" fill="black"/>
</g>
</g>
<path id="Vector_40" d="M156.456 214.94C151.624 209.241 150.511 208.139 148.613 202.023C148.311 201.052 148.043 200.087 147.801 199.133C144.971 210.914 142.854 213.185 140.732 213.135C139.092 213.097 136.799 210.854 135.686 207.842C129.471 191.026 135.186 180.309 140.605 174.369C127.376 172.872 122.923 166.318 122.308 162.775C121.886 160.345 122.851 157.91 124.831 156.451C131.331 151.657 143.797 156.786 146.085 157.789C138.088 154.06 134.457 143.743 139.931 139.953C141.691 138.735 145.487 137.178 152.77 139.783C155.941 140.918 159.879 143.008 165.018 146.008C166.564 146.908 168.001 147.873 169.345 148.877C186.046 160.532 188.64 170.009 188.827 179.136" fill="#47413F"/>
</g>
</g>
</g>
</g>
</g>
</g>
</g>
</g>
<defs>
<linearGradient id="paint0_linear_637_2793" x1="83.5471" y1="93.5891" x2="73.7525" y2="72.9152" gradientUnits="userSpaceOnUse">
<stop stop-color="white"/>
<stop offset="0.53" stop-color="#FFF68F"/>
</linearGradient>
<linearGradient id="paint1_linear_637_2793" x1="142.576" y1="84.5879" x2="147.791" y2="73.2763" gradientUnits="userSpaceOnUse">
<stop stop-color="white"/>
<stop offset="1" stop-color="#F7AC3B"/>
</linearGradient>
<clipPath id="clip0_637_2793">
<rect width="224" height="224" fill="white"/>
</clipPath>
</defs>
</svg>
