<svg width="20" height="20" viewBox="0 0 20 20" fill="none" xmlns="http://www.w3.org/2000/svg">
<g id="ico-calendar-12-bold" clip-path="url(#clip0_1_9509)">
<path id="Union" fill-rule="evenodd" clip-rule="evenodd" d="M4.8 1C5.24183 1 5.6 1.35817 5.6 1.8V3H14V1.8C14 1.35817 14.3582 1 14.8 1C15.2418 1 15.6 1.35817 15.6 1.8V3H17C18.1046 3 19 3.89543 19 5V8.0002V15C19 16.1046 18.1046 17 17 17H3C1.89543 17 1 16.1046 1 15V8.0002V5C1 3.89543 1.89543 3 3 3H4V1.8C4 1.35817 4.35817 1 4.8 1ZM4 4.6H3C2.77909 4.6 2.6 4.77909 2.6 5V7.2002H17.4V5C17.4 4.77909 17.2209 4.6 17 4.6H15.6V5.2C15.6 5.64183 15.2418 6 14.8 6C14.3582 6 14 5.64183 14 5.2V4.6H5.6V5.2C5.6 5.64183 5.24183 6 4.8 6C4.35817 6 4 5.64183 4 5.2V4.6ZM17.4 15V8.8002H2.6V15C2.6 15.2209 2.77909 15.4 3 15.4H17C17.2209 15.4 17.4 15.2209 17.4 15Z" fill="#BEBEBE"/>
</g>
<defs>
<clipPath id="clip0_1_9509">
<rect width="20" height="20" fill="white"/>
</clipPath>
</defs>
</svg>
