<svg width="32" height="32" viewBox="0 0 32 32" fill="none" xmlns="http://www.w3.org/2000/svg">
<g id="Frame 10">
<g id="Group">
<circle id="Ellipse 14" cx="16" cy="16" r="11.5" fill="white" stroke="#E8E8E8"/>
<path id="Vector" d="M18.1094 16.4374C18.1094 17.0175 17.8871 17.5739 17.4916 17.9842C17.096 18.3944 16.5594 18.6249 16 18.6249C15.4406 18.6249 14.904 18.3944 14.5084 17.9842C14.1129 17.5739 13.8906 17.0175 13.8906 16.4374C13.8906 15.8572 14.1129 15.3008 14.5084 14.8906C14.904 14.4803 15.4406 14.2499 16 14.2499C16.5594 14.2499 17.096 14.4803 17.4916 14.8906C17.8871 15.3008 18.1094 15.8572 18.1094 16.4374Z" fill="#8E8E8E"/>
<path id="Vector_2" d="M10.9375 12.5C10.4899 12.5 10.0607 12.6844 9.74426 13.0126C9.42779 13.3408 9.25 13.7859 9.25 14.25V19.5C9.25 19.9641 9.42779 20.4092 9.74426 20.7374C10.0607 21.0656 10.4899 21.25 10.9375 21.25H21.0625C21.5101 21.25 21.9393 21.0656 22.2557 20.7374C22.5722 20.4092 22.75 19.9641 22.75 19.5V14.25C22.75 13.7859 22.5722 13.3408 22.2557 13.0126C21.9393 12.6844 21.5101 12.5 21.0625 12.5H20.0736C19.6261 12.4999 19.197 12.3155 18.8806 11.9873L18.1819 11.2627C17.8655 10.9345 17.4364 10.7501 16.9889 10.75H15.0111C14.5636 10.7501 14.1345 10.9345 13.8181 11.2627L13.1194 11.9873C12.803 12.3155 12.3739 12.4999 11.9264 12.5H10.9375ZM11.3594 14.25C11.2475 14.25 11.1402 14.2039 11.0611 14.1219C10.9819 14.0398 10.9375 13.9285 10.9375 13.8125C10.9375 13.6965 10.9819 13.5852 11.0611 13.5031C11.1402 13.4211 11.2475 13.375 11.3594 13.375C11.4713 13.375 11.5786 13.4211 11.6577 13.5031C11.7368 13.5852 11.7812 13.6965 11.7812 13.8125C11.7812 13.9285 11.7368 14.0398 11.6577 14.1219C11.5786 14.2039 11.4713 14.25 11.3594 14.25ZM18.9531 16.4375C18.9531 17.2497 18.642 18.0287 18.0882 18.603C17.5344 19.1773 16.7832 19.5 16 19.5C15.2168 19.5 14.4656 19.1773 13.9118 18.603C13.358 18.0287 13.0469 17.2497 13.0469 16.4375C13.0469 15.6253 13.358 14.8463 13.9118 14.272C14.4656 13.6977 15.2168 13.375 16 13.375C16.7832 13.375 17.5344 13.6977 18.0882 14.272C18.642 14.8463 18.9531 15.6253 18.9531 16.4375Z" fill="#8E8E8E"/>
</g>
</g>
</svg>
