<svg width="100" height="100" viewBox="0 0 100 100" fill="none" xmlns="http://www.w3.org/2000/svg">
<g id="img">
<circle id="Ellipse 76" cx="50" cy="50" r="50" fill="#E8E8E8"/>
<g id="Mask group">
<mask id="mask0_1_9254" style="mask-type:alpha" maskUnits="userSpaceOnUse" x="0" y="0" width="100" height="100">
<circle id="Ellipse 77" cx="50" cy="50" r="50" fill="#E1E1E1"/>
</mask>
<g mask="url(#mask0_1_9254)">
<g id="Group">
<path id="Vector" d="M70.6405 95.3487C70.6405 95.3487 89.8254 97.5075 93.0001 71.2959L69.1199 88.3871L70.6437 95.3487H70.6405Z" fill="#47413F"/>
<path id="Vector_2" d="M6.96427 95.6777L-16.1801 110.649C-16.1801 110.649 -14.2199 116.367 -10.5568 119.584C-6.89693 122.801 -3.19149 123.98 -3.19149 123.98L14.4891 102.62L6.96427 95.6777Z" fill="white"/>
<g id="Group_2">
<path id="Vector_3" d="M59.192 44.9867L62.6564 44.3779C64.9748 43.9708 67.088 42.7856 68.6444 41.0176L70.4645 38.9499C70.7739 38.5983 70.4711 38.048 70.0087 38.1262L58.3779 40.0538L59.1952 44.99L59.192 44.9867Z" fill="#ECB350"/>
<g id="Vector_4" style="mix-blend-mode:multiply">
<path d="M59.192 44.9867L62.6564 44.3779C64.9748 43.9708 67.088 42.7856 68.6444 41.0176L70.4645 38.9499C70.7739 38.5983 70.4711 38.048 70.0087 38.1262L58.3779 40.0538L59.1952 44.99L59.192 44.9867Z" fill="#ECB350"/>
</g>
<path id="Vector_5" d="M61.4679 34.945L64.9421 34.4045C67.2703 34.043 69.6505 34.4859 71.692 35.6548L74.082 37.0256C74.489 37.2601 74.3783 37.8755 73.9159 37.9536L62.2852 39.8812L61.4679 34.945Z" fill="#ECB350"/>
</g>
<path id="Vector_6" d="M0.530273 96.5243C11.6791 94.2939 29.516 88.6413 34.322 65.6826C34.3546 65.5198 34.2862 65.3537 34.2667 65.1909C34.2471 65.0412 34.2243 64.8914 34.1983 64.7416C34.1983 64.7416 29.9068 39.1194 29.8416 38.7352C28.3113 29.5041 34.5565 20.7811 43.7875 19.2507C53.0185 17.7203 61.7416 23.9655 63.272 33.1966C63.3794 33.8348 63.4413 34.473 63.4771 35.1046C64.5744 41.4866 68.3157 63.3317 70.2205 75.9002C72.2099 89.0223 75.6874 122.749 44.5103 123.322C28.0312 123.625 15.5962 117.223 6.36845 110.789C6.36845 110.815 6.3652 110.832 6.3652 110.832" fill="white"/>
<path id="Vector_7" d="M23.8014 61.072C31.4239 56.7089 41.0424 61.3846 42.4784 70.0491C43.2533 74.7248 42.7063 81.1882 38.6394 89.6736C28.7018 110.408 22.4241 105.733 21.7468 102.2C21.7468 102.2 16.9018 112.58 12.4376 110.763C7.97354 108.946 10.6598 101.389 10.6598 101.389C10.6598 101.389 7.68375 110.376 1.94 108.155C-3.80376 105.931 0.49429 94.561 5.62915 84.0796C9.0448 77.105 15.5244 65.8129 23.7982 61.0753L23.8014 61.072Z" fill="#47413F"/>
<g id="Group_3">
<path id="Vector_8" d="M54.0996 31.5267C54.0996 31.5267 57.3557 28.7883 60.8723 30.4066" stroke="black" stroke-width="3" stroke-linecap="round" stroke-linejoin="round"/>
<g id="Group_4">
<path id="Vector_9" d="M55.7504 31.253C56.1639 33.7472 54.7475 36.059 52.5855 36.4172C50.4234 36.7754 48.3362 35.0431 47.926 32.549C47.5125 30.0548 48.9289 27.743 51.0909 27.3848C53.253 27.0266 55.3401 28.7589 55.7504 31.253Z" fill="black"/>
<path id="Vector_10" d="M67.4887 29.3092C67.9022 31.8034 66.4858 34.1152 64.3237 34.4733C62.1617 34.8315 60.0745 33.0993 59.6643 30.6051C59.2507 28.1109 60.6671 25.7991 62.8292 25.4409C64.9912 25.0828 67.0784 26.815 67.4887 29.3092Z" fill="black"/>
</g>
</g>
<path id="Vector_11" d="M73.7793 92.5519C70.9107 89.1688 70.2497 88.5143 69.1231 84.8837C68.944 84.3074 68.7845 83.7343 68.6412 83.1678C66.9611 90.1619 65.7042 91.5099 64.4441 91.4806C63.4705 91.4578 62.1095 90.1261 61.4485 88.3385C57.7593 78.3553 61.1522 71.9929 64.3692 68.4665C56.5155 67.5776 53.8716 63.6866 53.5069 61.5831C53.2562 60.1407 53.8292 58.695 55.0047 57.8289C58.8632 54.983 66.2643 58.0275 67.6221 58.6233C62.8747 56.4092 60.7191 50.2845 63.9687 48.0345C65.0139 47.3117 67.2671 46.3869 71.5912 47.9336C73.4733 48.6076 75.8111 49.8482 78.8621 51.6292C79.7803 52.1632 80.6334 52.7363 81.4312 53.3322C91.346 60.2514 92.8861 65.8779 92.9968 71.2961" fill="#47413F"/>
</g>
</g>
</g>
</g>
</svg>
