<svg width="14" height="12" viewBox="0 0 14 12" fill="none" xmlns="http://www.w3.org/2000/svg">
<g id="icon / filter">
<path id="Line 10" d="M1 1.65527H13" stroke="#8E8E8E" stroke-linecap="round"/>
<path id="Line 11" d="M1 5.79297H13" stroke="#8E8E8E" stroke-linecap="round"/>
<path id="Line 12" d="M1 9.93115H13" stroke="#8E8E8E" stroke-linecap="round"/>
<path id="Ellipse 26" d="M6.92855 1.86207C6.92855 2.59793 6.30564 3.22414 5.49998 3.22414C4.69432 3.22414 4.07141 2.59793 4.07141 1.86207C4.07141 1.12621 4.69432 0.5 5.49998 0.5C6.30564 0.5 6.92855 1.12621 6.92855 1.86207Z" fill="white" stroke="#8E8E8E"/>
<path id="Ellipse 27" d="M10.3571 5.99976C10.3571 6.73562 9.73423 7.36183 8.92857 7.36183C8.12291 7.36183 7.5 6.73562 7.5 5.99976C7.5 5.26391 8.12291 4.6377 8.92857 4.6377C9.73423 4.6377 10.3571 5.26391 10.3571 5.99976Z" fill="white" stroke="#8E8E8E"/>
<path id="Ellipse 28" d="M6.07144 10.1379C6.07144 10.8738 5.44853 11.5 4.64287 11.5C3.8372 11.5 3.21429 10.8738 3.21429 10.1379C3.21429 9.40209 3.8372 8.77588 4.64287 8.77588C5.44853 8.77588 6.07144 9.40209 6.07144 10.1379Z" fill="white" stroke="#8E8E8E"/>
</g>
</svg>
