<svg width="21" height="20" viewBox="0 0 21 20" fill="none" xmlns="http://www.w3.org/2000/svg">
<g id="Group 516">
<path id="Union" fill-rule="evenodd" clip-rule="evenodd" d="M2.06239 9.11392C2.06239 4.94333 5.44333 1.56239 9.61392 1.56239C13.7845 1.56239 17.1655 4.94333 17.1655 9.11392C17.1655 13.2845 13.7845 16.6655 9.61392 16.6655C5.44333 16.6655 2.06239 13.2845 2.06239 9.11392ZM9.61392 0C4.58044 0 0.5 4.08044 0.5 9.11392C0.5 14.1474 4.58044 18.2278 9.61392 18.2278C11.8572 18.2278 13.9113 17.4174 15.4991 16.0732L19.2035 19.7775C19.5001 20.0742 19.9809 20.0742 20.2775 19.7775C20.5742 19.4809 20.5742 19.0001 20.2775 18.7035L16.5732 14.9991C17.9174 13.4113 18.7278 11.3572 18.7278 9.11392C18.7278 4.08044 14.6474 0 9.61392 0Z" fill="#BEBEBE"/>
<path id="Ellipse 67 (Stroke)" fill-rule="evenodd" clip-rule="evenodd" d="M9.75 4.88636C8.99688 4.88636 8.38636 5.49688 8.38636 6.25C8.38636 7.00312 8.99688 7.61364 9.75 7.61364C10.5031 7.61364 11.1136 7.00312 11.1136 6.25C11.1136 5.49688 10.5031 4.88636 9.75 4.88636ZM6.75 6.25C6.75 4.59315 8.09315 3.25 9.75 3.25C11.4069 3.25 12.75 4.59315 12.75 6.25C12.75 7.90685 11.4069 9.25 9.75 9.25C8.09315 9.25 6.75 7.90685 6.75 6.25Z" fill="#BEBEBE"/>
<path id="Rectangle 290 (Stroke)" fill-rule="evenodd" clip-rule="evenodd" d="M7.5308 11.9502C5.84143 11.9502 4.53434 13.4308 4.74388 15.1072C4.79526 15.5182 4.50371 15.893 4.0927 15.9444C3.68168 15.9958 3.30684 15.7042 3.25546 15.2932C2.93401 12.7216 4.93918 10.4502 7.5308 10.4502H11.4685C14.0602 10.4502 16.0653 12.7216 15.7439 15.2932C15.6925 15.7042 15.3177 15.9958 14.9066 15.9444C14.4956 15.893 14.2041 15.5182 14.2555 15.1072C14.465 13.4308 13.1579 11.9502 11.4685 11.9502H7.5308Z" fill="#BEBEBE"/>
</g>
</svg>
