<svg width="24" height="24" viewBox="0 0 24 24" fill="none" xmlns="http://www.w3.org/2000/svg">
<path fill-rule="evenodd" clip-rule="evenodd" d="M3.56239 11.1139C3.56239 6.94333 6.94333 3.56239 11.1139 3.56239C15.2845 3.56239 18.6655 6.94333 18.6655 11.1139C18.6655 15.2845 15.2845 18.6655 11.1139 18.6655C6.94333 18.6655 3.56239 15.2845 3.56239 11.1139ZM11.1139 2C6.08044 2 2 6.08044 2 11.1139C2 16.1474 6.08044 20.2278 11.1139 20.2278C13.3572 20.2278 15.4113 19.4174 16.9991 18.0732L20.7035 21.7775C21.0001 22.0742 21.4809 22.0742 21.7775 21.7775C22.0742 21.4809 22.0742 21.0001 21.7775 20.7035L18.0732 16.9991C19.4174 15.4113 20.2278 13.3572 20.2278 11.1139C20.2278 6.08044 16.1474 2 11.1139 2Z" fill="#BEBEBE"/>
<path fill-rule="evenodd" clip-rule="evenodd" d="M11.25 6.88624C10.4969 6.88624 9.88636 7.49676 9.88636 8.24988C9.88636 9.00299 10.4969 9.61351 11.25 9.61351C12.0031 9.61351 12.6136 9.00299 12.6136 8.24988C12.6136 7.49676 12.0031 6.88624 11.25 6.88624ZM8.25 8.24988C8.25 6.59302 9.59315 5.24988 11.25 5.24988C12.9069 5.24988 14.25 6.59302 14.25 8.24988C14.25 9.90673 12.9069 11.2499 11.25 11.2499C9.59315 11.2499 8.25 9.90673 8.25 8.24988Z" fill="#BEBEBE"/>
<path fill-rule="evenodd" clip-rule="evenodd" d="M9.03074 13.9497C7.34137 13.9497 6.03428 15.4304 6.24382 17.1067C6.2952 17.5177 6.00365 17.8925 5.59264 17.9439C5.18162 17.9953 4.80678 17.7037 4.7554 17.2927C4.43395 14.7211 6.43912 12.4497 9.03074 12.4497H12.9685C15.5601 12.4497 17.5653 14.7211 17.2438 17.2927C17.1924 17.7037 16.8176 17.9953 16.4066 17.9439C15.9956 17.8925 15.704 17.5177 15.7554 17.1067C15.9649 15.4304 14.6579 13.9497 12.9685 13.9497H9.03074Z" fill="#BEBEBE"/>
</svg>
