<svg width="24" height="24" viewBox="0 0 24 24" fill="none" xmlns="http://www.w3.org/2000/svg">
<path fill-rule="evenodd" clip-rule="evenodd" d="M3.56239 11.1139C3.56239 6.94333 6.94333 3.56239 11.1139 3.56239C15.2845 3.56239 18.6655 6.94333 18.6655 11.1139C18.6655 15.2845 15.2845 18.6655 11.1139 18.6655C6.94333 18.6655 3.56239 15.2845 3.56239 11.1139ZM11.1139 2C6.08044 2 2 6.08044 2 11.1139C2 16.1474 6.08044 20.2278 11.1139 20.2278C13.3572 20.2278 15.4113 19.4174 16.9991 18.0732L20.7035 21.7775C21.0001 22.0742 21.4809 22.0742 21.7775 21.7775C22.0742 21.4809 22.0742 21.0001 21.7775 20.7035L18.0732 16.9991C19.4174 15.4113 20.2278 13.3572 20.2278 11.1139C20.2278 6.08044 16.1474 2 11.1139 2Z" fill="black"/>
<path fill-rule="evenodd" clip-rule="evenodd" d="M11.25 6.88636C10.4969 6.88636 9.88636 7.49688 9.88636 8.25C9.88636 9.00312 10.4969 9.61364 11.25 9.61364C12.0031 9.61364 12.6136 9.00312 12.6136 8.25C12.6136 7.49688 12.0031 6.88636 11.25 6.88636ZM8.25 8.25C8.25 6.59315 9.59315 5.25 11.25 5.25C12.9069 5.25 14.25 6.59315 14.25 8.25C14.25 9.90685 12.9069 11.25 11.25 11.25C9.59315 11.25 8.25 9.90685 8.25 8.25Z" fill="black"/>
<path fill-rule="evenodd" clip-rule="evenodd" d="M9.03092 13.9497C7.34155 13.9497 6.03446 15.4304 6.244 17.1067C6.29538 17.5177 6.00384 17.8925 5.59282 17.9439C5.18181 17.9953 4.80696 17.7037 4.75559 17.2927C4.43414 14.7211 6.4393 12.4497 9.03092 12.4497H12.9687C15.5603 12.4497 17.5655 14.7211 17.244 17.2927C17.1926 17.7037 16.8178 17.9953 16.4068 17.9439C15.9958 17.8925 15.7042 17.5177 15.7556 17.1067C15.9651 15.4304 14.658 13.9497 12.9687 13.9497H9.03092Z" fill="black"/>
</svg>
