<svg width="24" height="24" viewBox="0 0 24 24" fill="none" xmlns="http://www.w3.org/2000/svg">
<path fill-rule="evenodd" clip-rule="evenodd" d="M11.566 3.14488C11.8241 2.95171 12.1759 2.95171 12.434 3.14488L21.7023 10.0814C22.0276 10.3248 22.097 10.7901 21.8573 11.1205C21.6176 11.451 21.1595 11.5215 20.8342 11.278L19.4634 10.2521V20.2357C19.4634 20.6577 19.1276 20.9998 18.7134 20.9998C18.2992 20.9998 17.9634 20.6577 17.9634 20.2357L17.9634 9.12944L12 4.66635L6 9.15683L6 20.2357C6 20.6577 5.66421 20.9998 5.25 20.9998C4.83578 20.9998 4.5 20.6577 4.5 20.2357L4.5 10.2795L3.1658 11.278C2.84047 11.5215 2.38241 11.451 2.14269 11.1205C1.90297 10.7901 1.97238 10.3248 2.29771 10.0814L11.566 3.14488Z" fill="black"/>
</svg>
