<svg width="25" height="24" viewBox="0 0 25 24" fill="none" xmlns="http://www.w3.org/2000/svg">
<g id="ico-bottombar-home">
<path id="Union" fill-rule="evenodd" clip-rule="evenodd" d="M12.066 3.14488C12.3241 2.95171 12.6759 2.95171 12.934 3.14488L22.2023 10.0814C22.5276 10.3248 22.597 10.7901 22.3573 11.1205C22.1176 11.451 21.6595 11.5215 21.3342 11.278L19.9634 10.2521V20.2357C19.9634 20.6577 19.6276 20.9998 19.2134 20.9998C18.7992 20.9998 18.4634 20.6577 18.4634 20.2357L18.4634 9.12944L12.5 4.66635L6.5 9.15683L6.5 20.2357C6.5 20.6577 6.16421 20.9998 5.75 20.9998C5.33578 20.9998 5 20.6577 5 20.2357L5 10.2795L3.6658 11.278C3.34047 11.5215 2.88241 11.451 2.64269 11.1205C2.40297 10.7901 2.47238 10.3248 2.79771 10.0814L12.066 3.14488Z" fill="#BEBEBE"/>
</g>
</svg>
