<svg width="15" height="15" viewBox="0 0 15 15" fill="none" xmlns="http://www.w3.org/2000/svg">
<path d="M6.88477 5.69727H8.125V11H6.88477V5.69727ZM7.50488 4.94043C7.37142 4.94043 7.24935 4.90951 7.13867 4.84766C7.03125 4.78581 6.94499 4.70443 6.87988 4.60352C6.81478 4.5026 6.78223 4.3903 6.78223 4.2666C6.78223 4.1429 6.81478 4.02897 6.87988 3.9248C6.94499 3.82064 7.03125 3.73926 7.13867 3.68066C7.24935 3.62207 7.36979 3.59277 7.5 3.59277C7.63021 3.59277 7.75065 3.62207 7.86133 3.68066C7.97201 3.73926 8.0599 3.82064 8.125 3.9248C8.19336 4.02897 8.22754 4.1429 8.22754 4.2666C8.22754 4.3903 8.19336 4.5026 8.125 4.60352C8.0599 4.70443 7.97201 4.78581 7.86133 4.84766C7.75065 4.90951 7.63184 4.94043 7.50488 4.94043Z" fill="black"/>
<circle cx="7.5" cy="7.5" r="7" stroke="black"/>
</svg>
