<svg width="177" height="155" viewBox="0 0 177 155" fill="none" xmlns="http://www.w3.org/2000/svg">
<g clip-path="url(#clip0_430_2655)">
<path d="M74.6556 14.0146C70.1084 3.93303 58.2639 -0.542269 48.2042 4.01208C38.1446 8.56643 33.6702 20.4296 38.2235 30.5112C33.6763 20.4357 21.8318 15.9543 11.7661 20.5148C1.70037 25.0691 -2.76788 36.9323 1.77929 47.0078C1.77929 47.02 8.70023 69.1047 59.4113 77.4655C86.6458 33.813 74.6616 14.0207 74.6556 14.0086V14.0146Z" fill="#FFAED8"/>
<path d="M174.317 132.629C179.836 123.052 176.563 110.805 167.002 105.272C157.44 99.7448 145.213 103.022 139.688 112.599C145.207 103.022 141.934 90.776 132.373 85.2427C122.811 79.7154 110.584 82.9928 105.059 92.5698C105.053 92.5819 91.1749 111.085 113.965 157.225C165.253 153.923 174.317 132.635 174.323 132.623L174.317 132.629Z" fill="#FF8ABF"/>
<path d="M40.9861 50.5225L137.163 75.4224L104.95 22.2599C102.856 18.8001 98.3874 17.6448 94.8844 19.6514L40.9861 50.5225Z" fill="#A2E8E0"/>
<path d="M40.9861 50.5225L137.163 75.4163L80.6783 95.5066L40.9861 50.5225Z" fill="#80D6CF"/>
<path d="M133.272 37.5326L62.7253 19.2725L44.4939 89.9302L115.04 108.19L133.272 37.5326Z" fill="#FFF7E7"/>
<path d="M24.1936 115.59L120.37 140.49L80.6782 95.5063L24.1936 115.59Z" fill="white"/>
<path d="M40.986 50.5225L24.1936 115.591L80.6782 95.5066L40.986 50.5225Z" fill="#C4F5EF"/>
<path d="M137.163 75.4165L120.37 140.491L80.6782 95.5067L137.163 75.4165Z" fill="#C4F5EF"/>
<path d="M90.2764 96.0233C90.926 93.4999 89.4143 90.9278 86.8949 90.2711C84.3754 89.6144 81.8074 91.1345 81.1517 93.658C81.8013 91.1345 80.2896 88.5624 77.7702 87.9057C75.2507 87.2551 72.6827 88.7692 72.027 91.2926C72.027 91.2926 70.0418 96.3699 78.1162 105.412C89.554 101.429 90.2703 96.0233 90.2703 96.0172L90.2764 96.0233Z" fill="#FFAED8"/>
<path d="M73.3748 37.4129C74.7529 37.3765 75.9853 38.2946 77.2906 39.2736C78.6991 40.3255 80.1622 41.414 82.0138 41.4991C82.5299 41.5234 83.0338 41.4626 83.5255 41.4079C84.3876 41.3106 85.1343 41.2255 85.6139 41.5964C85.7961 41.7362 85.96 41.9673 86.1421 42.2105C86.2939 42.4233 86.4699 42.6605 86.6764 42.8794C87.2349 43.4631 87.927 43.7915 88.6616 43.98C89.5661 44.211 90.5375 44.2354 91.4178 44.2597C94.7629 44.3448 98.0777 44.8799 101.271 45.8589C102.667 46.2845 104.094 46.8135 105.478 47.3182C109.752 48.887 114.166 50.5105 118.756 49.7565C119.217 49.6775 119.533 49.2397 119.46 48.7776C119.381 48.3093 118.944 47.9992 118.482 48.0722C114.336 48.7532 110.317 47.2756 106.067 45.7129C104.665 45.1961 103.214 44.6671 101.775 44.2232C98.4298 43.2017 94.9633 42.6362 91.3874 42.551C90.0518 42.5206 88.6676 42.4842 87.9088 41.6937L87.5263 41.2072C87.2956 40.891 87.0345 40.5323 86.6581 40.2404C85.6321 39.456 84.4179 39.5898 83.3434 39.7114C82.9002 39.7601 82.4813 39.8087 82.0988 39.7905C80.7693 39.7296 79.5794 38.8419 78.3166 37.9055C76.8353 36.7988 75.3054 35.6557 73.3384 35.7104C72.6766 35.7286 72.0635 35.8867 71.4685 36.0387C70.8128 36.209 70.1936 36.3671 69.629 36.288C69.1615 36.2212 68.7305 36.5495 68.6698 37.0177C68.603 37.4859 68.9308 37.9176 69.3983 37.9784C70.2968 38.1001 71.1103 37.8933 71.8935 37.6866C72.4156 37.5528 72.9134 37.4251 73.3809 37.4129H73.3748Z" fill="#B59E8D"/>
<path d="M70.7399 58.2086C73.7633 59.8807 77.673 61.0543 80.8117 61.9907C82.6876 62.5501 84.6243 63.1338 86.4395 63.225L87.2773 63.2494C87.9816 63.2555 88.7829 63.2676 89.6389 63.4318C91.6667 63.8149 93.1965 64.8607 94.5564 65.785L95.3639 66.3201C96.5356 67.0801 98.1869 67.7551 99.0551 67.4389L99.2675 67.3477C99.5286 67.2321 99.8807 67.0741 100.391 67.0254C101.101 66.9646 101.781 67.1409 102.224 67.2565L113.14 70.1083C113.862 70.2968 114.354 70.8197 114.239 71.2697C114.117 71.7196 113.437 71.9324 112.715 71.7439L101.799 68.8921L101.35 68.7827L101.083 68.8921L100.725 69.0381C99.7047 69.409 98.5026 69.3421 97.3127 69.032C96.0135 68.6976 94.7386 68.0773 93.7551 67.4389L92.893 66.8612C91.7456 66.0829 90.6771 65.3472 89.5054 65.1283C89.0136 65.031 88.4551 65.0249 87.8601 65.0188L86.8766 64.9945C84.5575 64.879 82.2687 64.1919 80.2471 63.5838C76.9141 62.5866 72.7676 61.3462 69.3679 59.4612C68.5422 59.0051 67.4555 58.9139 66.6784 59.2423C66.1199 59.4794 65.5128 59.674 64.8814 59.8321C64.2561 59.9902 63.4365 59.7348 63.048 59.2727C62.6594 58.8045 62.8537 58.3059 63.4729 58.1478C63.9768 58.0201 64.4625 57.862 64.9057 57.6735C66.5691 56.9742 68.9247 57.187 70.7581 58.1964L70.7399 58.2086Z" fill="#B59E8D"/>
<path d="M116.187 59.6371C114.19 59.3209 112.187 58.8284 110.244 58.348L96.8331 55.0523C94.1983 54.4017 91.4785 53.7329 89.0562 52.4499C88.619 52.2188 88.1819 51.9634 87.7509 51.708C86.7006 51.0878 85.62 50.4554 84.4058 50.0967C83.2583 49.7562 82.0684 49.6954 80.9149 49.6345L80.5082 49.6102C75.7667 49.3427 71.0739 48.4914 66.5631 47.0746C66.1746 46.9652 65.7557 47.2266 65.616 47.6827C65.4825 48.1387 65.6828 48.6069 66.0713 48.7285C70.6792 50.1757 75.4753 51.0452 80.32 51.3189L80.7267 51.3371C81.8559 51.3979 82.9244 51.4526 83.9262 51.7506C84.9886 52.0607 85.9599 52.6323 86.9859 53.2403C87.4352 53.5018 87.8784 53.7693 88.3398 54.0065C90.3371 55.0706 92.4863 55.7212 94.6172 56.2745C95.2121 56.4266 95.8132 56.5786 96.4081 56.7245L109.819 60.0202C111.78 60.5005 113.814 61.0052 115.866 61.3275C116.266 61.3944 116.661 61.066 116.746 60.5978C116.831 60.1296 116.582 59.6979 116.175 59.6371H116.187Z" fill="#B59E8D"/>
</g>
<defs>
<clipPath id="clip0_430_2655">
<rect width="177" height="155" fill="white"/>
</clipPath>
</defs>
</svg>
