<svg width="16" height="16" viewBox="0 0 16 16" fill="none" xmlns="http://www.w3.org/2000/svg">
<g id="ico-more-horizontal">
<path id="Vector (Stroke)" fill-rule="evenodd" clip-rule="evenodd" d="M6.66669 7.99996C6.66669 7.26358 7.26364 6.66663 8.00002 6.66663C8.7364 6.66663 9.33335 7.26358 9.33335 7.99996C9.33335 8.73634 8.7364 9.33329 8.00002 9.33329C7.26364 9.33329 6.66669 8.73634 6.66669 7.99996Z" fill="white"/>
<path id="Vector (Stroke)_2" fill-rule="evenodd" clip-rule="evenodd" d="M11.3333 7.99996C11.3333 7.26358 11.9303 6.66663 12.6666 6.66663C13.403 6.66663 14 7.26358 14 7.99996C14 8.73634 13.403 9.33329 12.6666 9.33329C11.9303 9.33329 11.3333 8.73634 11.3333 7.99996Z" fill="white"/>
<path id="Vector (Stroke)_3" fill-rule="evenodd" clip-rule="evenodd" d="M2 7.99996C2 7.26358 2.59695 6.66663 3.33333 6.66663C4.06971 6.66663 4.66667 7.26358 4.66667 7.99996C4.66667 8.73634 4.06971 9.33329 3.33333 9.33329C2.59695 9.33329 2 8.73634 2 7.99996Z" fill="white"/>
</g>
</svg>
