<svg width="24" height="24" viewBox="0 0 24 24" fill="none" xmlns="http://www.w3.org/2000/svg">
<path fill-rule="evenodd" clip-rule="evenodd" d="M3 4.55814C3 3.14532 4.13651 2 5.53846 2H18.4615C19.8635 2 21 3.14532 21 4.55814V19.4419C21 20.8547 19.8635 22 18.4615 22H5.53846C4.13651 22 3 20.8547 3 19.4419V4.55814ZM5.53846 3.39535C4.90121 3.39535 4.38462 3.91595 4.38462 4.55814V19.4419C4.38462 20.0841 4.90121 20.6047 5.53846 20.6047H18.4615C19.0988 20.6047 19.6154 20.0841 19.6154 19.4419V4.55814C19.6154 3.91595 19.0988 3.39535 18.4615 3.39535H5.53846Z" fill="#BEBEBE"/>
<path fill-rule="evenodd" clip-rule="evenodd" d="M8.42105 7.5V9.5H11.2632V7.5H8.42105ZM7.94737 6C7.42415 6 7 6.44772 7 7V10C7 10.5523 7.42415 11 7.94737 11H11.7368C12.2601 11 12.6842 10.5523 12.6842 10V7C12.6842 6.44772 12.2601 6 11.7368 6H7.94737Z" fill="#BEBEBE"/>
<path fill-rule="evenodd" clip-rule="evenodd" d="M7 13.7389C7 13.3308 7.3134 13 7.7 13H13.3C13.6866 13 14 13.3308 14 13.7389C14 14.147 13.6866 14.4778 13.3 14.4778H7.7C7.3134 14.4778 7 14.147 7 13.7389Z" fill="#BEBEBE"/>
<path fill-rule="evenodd" clip-rule="evenodd" d="M7 17.1884C7 16.8082 7.29199 16.5 7.65217 16.5H16.3478C16.708 16.5 17 16.8082 17 17.1884C17 17.5686 16.708 17.8768 16.3478 17.8768H7.65217C7.29199 17.8768 7 17.5686 7 17.1884Z" fill="#BEBEBE"/>
</svg>
