<svg width="19" height="20" viewBox="0 0 19 20" fill="none" xmlns="http://www.w3.org/2000/svg">
<g id="Group 456">
<path id="Rectangle 238 (Stroke)" fill-rule="evenodd" clip-rule="evenodd" d="M0.5 2.55814C0.5 1.14532 1.63651 0 3.03846 0H15.9615C17.3635 0 18.5 1.14532 18.5 2.55814V17.4419C18.5 18.8547 17.3635 20 15.9615 20H3.03846C1.63651 20 0.5 18.8547 0.5 17.4419V2.55814ZM3.03846 1.39535C2.40121 1.39535 1.88462 1.91595 1.88462 2.55814V17.4419C1.88462 18.0841 2.40121 18.6047 3.03846 18.6047H15.9615C16.5988 18.6047 17.1154 18.0841 17.1154 17.4419V2.55814C17.1154 1.91595 16.5988 1.39535 15.9615 1.39535H3.03846Z" fill="#BEBEBE"/>
<path id="Rectangle 239 (Stroke)" fill-rule="evenodd" clip-rule="evenodd" d="M5.92105 5.5V7.5H8.76316V5.5H5.92105ZM5.44737 4C4.92415 4 4.5 4.44772 4.5 5V8C4.5 8.55228 4.92415 9 5.44737 9H9.23684C9.76006 9 10.1842 8.55228 10.1842 8V5C10.1842 4.44772 9.76006 4 9.23684 4H5.44737Z" fill="#BEBEBE"/>
<path id="Line 33 (Stroke)" fill-rule="evenodd" clip-rule="evenodd" d="M4.5 11.7389C4.5 11.3308 4.8134 11 5.2 11H10.8C11.1866 11 11.5 11.3308 11.5 11.7389C11.5 12.147 11.1866 12.4778 10.8 12.4778H5.2C4.8134 12.4778 4.5 12.147 4.5 11.7389Z" fill="#BEBEBE"/>
<path id="Line 34 (Stroke)" fill-rule="evenodd" clip-rule="evenodd" d="M4.5 15.1884C4.5 14.8082 4.79199 14.5 5.15217 14.5H13.8478C14.208 14.5 14.5 14.8082 14.5 15.1884C14.5 15.5686 14.208 15.8768 13.8478 15.8768H5.15217C4.79199 15.8768 4.5 15.5686 4.5 15.1884Z" fill="#BEBEBE"/>
</g>
</svg>
