<svg width="24" height="24" viewBox="0 0 24 24" fill="none" xmlns="http://www.w3.org/2000/svg">
<path fill-rule="evenodd" clip-rule="evenodd" d="M11.75 10.5C13.683 10.5 15.25 8.933 15.25 7C15.25 5.067 13.683 3.5 11.75 3.5C9.817 3.5 8.25 5.067 8.25 7C8.25 8.933 9.817 10.5 11.75 10.5ZM11.75 12C14.5114 12 16.75 9.76142 16.75 7C16.75 4.23858 14.5114 2 11.75 2C8.98858 2 6.75 4.23858 6.75 7C6.75 9.76142 8.98858 12 11.75 12Z" fill="#BEBEBE"/>
<path fill-rule="evenodd" clip-rule="evenodd" d="M5.80206 17.3814C4.30747 18.3778 3.5 19.6719 3.5 21C3.5 21.4142 3.16421 21.75 2.75 21.75C2.33579 21.75 2 21.4142 2 21C2 19.0144 3.20725 17.3085 4.97001 16.1333C6.73802 14.9546 9.1373 14.25 11.75 14.25C14.3627 14.25 16.762 14.9546 18.53 16.1333C20.2928 17.3085 21.5 19.0144 21.5 21C21.5 21.4142 21.1642 21.75 20.75 21.75C20.3358 21.75 20 21.4142 20 21C20 19.6719 19.1925 18.3778 17.6979 17.3814C16.2086 16.3885 14.1079 15.75 11.75 15.75C9.39214 15.75 7.29141 16.3885 5.80206 17.3814Z" fill="#BEBEBE"/>
</svg>
