<svg width="20" height="20" viewBox="0 0 20 20" fill="none" xmlns="http://www.w3.org/2000/svg">
<g id="Group 457">
<path id="Ellipse 17 (Stroke)" fill-rule="evenodd" clip-rule="evenodd" d="M10.25 8.5C12.183 8.5 13.75 6.933 13.75 5C13.75 3.067 12.183 1.5 10.25 1.5C8.317 1.5 6.75 3.067 6.75 5C6.75 6.933 8.317 8.5 10.25 8.5ZM10.25 10C13.0114 10 15.25 7.76142 15.25 5C15.25 2.23858 13.0114 0 10.25 0C7.48858 0 5.25 2.23858 5.25 5C5.25 7.76142 7.48858 10 10.25 10Z" fill="#BEBEBE"/>
<path id="Ellipse 18 (Stroke)" fill-rule="evenodd" clip-rule="evenodd" d="M4.30206 15.3814C2.80747 16.3778 2 17.6719 2 19C2 19.4142 1.66421 19.75 1.25 19.75C0.835786 19.75 0.5 19.4142 0.5 19C0.5 17.0144 1.70725 15.3085 3.47001 14.1333C5.23802 12.9546 7.6373 12.25 10.25 12.25C12.8627 12.25 15.262 12.9546 17.03 14.1333C18.7928 15.3085 20 17.0144 20 19C20 19.4142 19.6642 19.75 19.25 19.75C18.8358 19.75 18.5 19.4142 18.5 19C18.5 17.6719 17.6925 16.3778 16.1979 15.3814C14.7086 14.3885 12.6079 13.75 10.25 13.75C7.89214 13.75 5.79141 14.3885 4.30206 15.3814Z" fill="#BEBEBE"/>
</g>
</svg>
