<svg width="25" height="24" viewBox="0 0 25 24" fill="none" xmlns="http://www.w3.org/2000/svg">
<g id="ico-head-close" clip-path="url(#clip0_51_6387)">
<path id="Vector" d="M13.772 11.9997L20.936 4.83573C21.284 4.48773 21.284 3.91173 20.936 3.56373C20.588 3.21573 20.012 3.21573 19.664 3.56373L12.5 10.7277L5.33598 3.56373C4.98798 3.21573 4.41198 3.21573 4.06398 3.56373C3.71598 3.91173 3.71598 4.48773 4.06398 4.83573L11.228 11.9997L4.06398 19.1637C3.71598 19.5117 3.71598 20.0877 4.06398 20.4357C4.24398 20.6157 4.47198 20.6997 4.69998 20.6997C4.92798 20.6997 5.15598 20.6157 5.33598 20.4357L12.5 13.2717L19.664 20.4357C19.844 20.6157 20.072 20.6997 20.3 20.6997C20.528 20.6997 20.756 20.6157 20.936 20.4357C21.284 20.0877 21.284 19.5117 20.936 19.1637L13.772 11.9997Z" fill="black"/>
</g>
<defs>
<clipPath id="clip0_51_6387">
<rect width="24" height="24" fill="white" transform="translate(0.5)"/>
</clipPath>
</defs>
</svg>
