<svg width="21" height="23" viewBox="0 0 21 23" fill="none" xmlns="http://www.w3.org/2000/svg">
<g id="Group 624">
<path id="Ellipse 11" d="M13.2044 19C13.2044 20.6569 11.8915 22 10.2719 22C8.65238 22 7.33948 20.6569 7.33948 19" stroke="#101317" stroke-width="1.5"/>
<g id="Union">
<mask id="path-2-inside-1_982_2660" fill="white">
<path fill-rule="evenodd" clip-rule="evenodd" d="M10.272 0C5.9532 0 2.45213 3.50106 2.45213 7.81984V13.9283L0.674799 15.503C-0.702901 16.7236 0.160449 19 2.00109 19H2.45213H18.0918H18.5432C20.3838 19 21.2472 16.7236 19.8695 15.503L18.0918 13.9281V7.81984C18.0918 3.50106 14.5908 0 10.272 0Z"/>
</mask>
<path d="M2.45213 13.9283L3.44685 15.0511L3.95213 14.6034V13.9283H2.45213ZM0.674799 15.503L1.66952 16.6258H1.66952L0.674799 15.503ZM19.8695 15.503L18.8747 16.6258L19.8695 15.503ZM18.0918 13.9281H16.5918V14.6031L17.0971 15.0508L18.0918 13.9281ZM3.95213 7.81984C3.95213 4.32949 6.78162 1.5 10.272 1.5V-1.5C5.12477 -1.5 0.952132 2.67263 0.952132 7.81984H3.95213ZM3.95213 13.9283V7.81984H0.952132V13.9283H3.95213ZM1.66952 16.6258L3.44685 15.0511L1.45741 12.8056L-0.31992 14.3803L1.66952 16.6258ZM2.00109 17.5C1.54093 17.5 1.32509 16.9309 1.66952 16.6258L-0.31992 14.3803C-2.73089 16.5163 -1.22003 20.5 2.00109 20.5V17.5ZM2.45213 17.5H2.00109V20.5H2.45213V17.5ZM18.0918 17.5H2.45213V20.5H18.0918V17.5ZM18.5432 17.5H18.0918V20.5H18.5432V17.5ZM18.8747 16.6258C19.2192 16.9309 19.0033 17.5 18.5432 17.5V20.5C21.7643 20.5 23.2752 16.5164 20.8642 14.3803L18.8747 16.6258ZM17.0971 15.0508L18.8747 16.6258L20.8642 14.3803L19.0865 12.8053L17.0971 15.0508ZM16.5918 7.81984V13.9281H19.5918V7.81984H16.5918ZM10.272 1.5C13.7623 1.5 16.5918 4.32949 16.5918 7.81984H19.5918C19.5918 2.67263 15.4192 -1.5 10.272 -1.5V1.5Z" fill="#101317" mask="url(#path-2-inside-1_982_2660)"/>
</g>
</g>
</svg>
