<svg width="208" height="222" viewBox="0 0 208 222" fill="none" xmlns="http://www.w3.org/2000/svg">
<g id="&#237;&#154;&#140;&#236;&#155;&#144;&#234;&#176;&#128;&#236;&#158;&#133; &#235;&#129;&#157; &#236;&#157;&#188;&#235;&#159;&#172;&#236;&#138;&#164;&#237;&#138;&#184;" clip-path="url(#clip0_435_2506)">
<g id="&#235;&#160;&#136;&#236;&#157;&#180;&#236;&#150;&#180; 1">
<g id="Group">
<path id="Vector" d="M78.5398 171.013C79.4105 174.367 80.5979 177.218 82.0012 179.631C84.232 183.473 87.0098 186.209 89.9027 188.119C90.3632 188.421 90.8238 188.701 91.2843 188.959C94.8177 190.948 98.4374 191.796 101.424 191.975C102.359 192.033 103.302 192.047 104.259 192.004C104.684 191.99 105.115 191.961 105.547 191.925C110.203 191.508 115.125 189.771 120.22 185.598C120.688 185.218 121.149 184.816 121.616 184.399C122.962 183.185 124.315 181.799 125.675 180.22C128.071 177.44 130.302 174.834 132.476 172.485C132.771 172.162 133.08 171.868 133.354 171.545C144.587 158.245 155.374 160.435 158.238 161.297C160.728 162.044 163.239 163.48 164.657 165.196C164.657 165.196 174.739 175.588 162.815 187.588C162.815 187.588 172.228 171.222 158.893 164.723C158.641 164.615 157.648 164.306 157 164.112C156.626 163.997 156.245 163.897 155.856 163.832C153.373 163.437 150.646 163.746 147.667 164.809C147.213 164.967 146.753 165.153 146.292 165.347C145.566 165.649 144.832 166.001 144.083 166.396C140.514 168.263 137.578 171.107 134.908 174.216C134.584 174.59 134.253 174.956 133.951 175.351C120.285 193.368 111.204 195.602 105.029 196.162C104.576 196.205 104.122 196.234 103.662 196.248C100.244 196.356 96.444 195.731 92.0831 194.022C91.162 193.663 90.2913 193.268 89.4709 192.837C88.96 192.571 88.4706 192.298 88.0029 192.011C83.6779 189.404 80.8282 185.986 78.9932 183.006C76.7263 179.329 76.0139 176.313 76.0139 176.313C76.0139 176.313 73.9414 170.884 78.5326 171.028L78.5398 171.013Z" fill="#E6AFA4"/>
<path id="Vector_2" d="M86.8514 222C107.176 222 123.653 220.688 123.653 219.07C123.653 217.452 107.176 216.14 86.8514 216.14C66.5264 216.14 50.0498 217.452 50.0498 219.07C50.0498 220.688 66.5264 222 86.8514 222Z" fill="#5E5852"/>
<path id="Vector_3" d="M84.117 138.152C84.117 138.152 73.1428 106.548 37.946 95.6537C37.946 95.6537 23.2153 90.713 16.9258 99.1797C13.047 104.4 13.5651 113.786 20.3224 119.38C30.9656 128.185 43.4799 125.994 65.2269 143.064L84.117 138.159V138.152Z" fill="#AF9E8A"/>
<g id="Group_2">
<path id="Vector_4" d="M145.434 73.6684C158.911 59.3823 159.038 37.6572 145.717 25.144C132.397 12.6307 110.673 14.0679 97.1968 28.354C83.7203 42.64 83.5938 64.3652 96.9142 76.8784C110.235 89.3916 131.958 87.9545 145.434 73.6684Z" fill="#AF9E8A"/>
<path id="Vector_5" d="M120.724 76.7596L114.032 75.388C114.032 75.388 119.472 56.1567 130.259 44.9899C143.738 30.7065 165.456 29.2702 178.776 41.7871C192.096 54.2967 191.967 76.0199 178.488 90.3105C176.459 92.4649 174.243 94.3176 171.889 95.8831C153.244 108.314 133.764 101.334 124.884 97.2332C110.39 90.5547 115.147 84.4578 121.717 80.5082C121.314 79.2802 120.976 78.0235 120.724 76.7524V76.7596Z" fill="#D8CFC4"/>
<path id="Vector_6" d="M127.474 72.3577C127.474 72.3577 131.116 59.4817 138.341 52.0061C147.365 42.4407 161.901 41.4856 170.817 49.8589C179.733 58.2394 179.647 72.7814 170.623 82.3395C169.263 83.783 167.78 85.0253 166.204 86.0738C153.719 94.3968 139.65 91.2945 133.699 88.5513C123.991 84.0774 127.467 72.3577 127.467 72.3577H127.474Z" fill="#E5AEA3"/>
<path id="Vector_7" d="M47.5244 76.2356C47.5244 76.2356 22.3879 89.0397 42.7749 105.894C63.1546 122.741 109.203 134.044 120.494 132.809C131.785 131.567 140.557 122.001 142.299 112.336C144.04 102.677 142.385 83.625 122.703 73.9448C103.022 64.2645 72.5745 61.4207 47.5316 76.2356H47.5244Z" fill="#D8CFC4"/>
<path id="Vector_8" d="M61.6862 104.968C61.9236 105.075 62.0532 105.334 62.0028 105.585C61.7653 106.734 60.873 109.93 57.8793 112.515C57.095 113.19 56.2242 113.678 55.3247 113.98C55.1736 114.03 55.0152 114.009 54.8713 113.937C51.597 112.156 48.5386 110.282 45.8185 108.321C45.7033 108.235 45.6242 108.113 45.5954 107.977C45.2428 106.181 45.2428 104.034 45.876 101.499C45.9408 101.248 46.1711 101.068 46.4373 101.075C48.1213 101.126 54.3532 101.564 61.6862 104.96V104.968Z" fill="#E5AEA3"/>
<path id="Vector_9" d="M79.3532 85.6934C79.3532 85.6934 72.6607 85.7939 67.2563 87.9626C67.2563 87.9626 71.8835 89.564 77.806 94.0667" stroke="#493F34" stroke-width="3" stroke-linecap="round" stroke-linejoin="round"/>
<path id="Vector_10" d="M34.2543 96.4293C37.8352 96.4293 40.7381 93.5325 40.7381 89.959C40.7381 86.3856 37.8352 83.4888 34.2543 83.4888C30.6734 83.4888 27.7705 86.3856 27.7705 89.959C27.7705 93.5325 30.6734 96.4293 34.2543 96.4293Z" fill="#E5AEA3"/>
</g>
<path id="Vector_11" d="M88.6576 138.849C88.6576 138.849 108.275 111.725 145.126 111.388C145.126 111.388 160.656 110.878 164.24 120.795C166.449 126.906 163.247 135.754 155.165 139.172C142.435 144.551 131.079 138.863 105.331 148.967L88.6504 138.849H88.6576Z" fill="#D8CFC4"/>
<path id="Vector_12" d="M129.741 196.765C126.093 189.85 116.263 192.902 116.263 192.902C111.405 188.069 106.512 174.037 104.59 168.084C106.044 165.865 107.332 163.258 108.34 160.17C114.32 141.937 107.519 123.56 107.519 123.56L71.6603 117.7C71.6603 117.7 57.3974 132.637 57.2391 151.818C57.2247 153.764 57.3614 155.567 57.6061 157.261C53.1444 161.85 42.7459 172.026 36.3412 174.195C36.3412 174.195 28.8715 167.128 22.5388 171.724C16.2061 176.32 14.0617 184.859 24.2371 194.288C34.4126 203.724 40.6518 203.846 54.3678 194.439C60.132 190.489 64.7591 184.306 70.9767 179.143C72.0201 178.274 73.4162 177.972 74.7187 178.338C75.5175 178.561 79.1444 179.38 79.9144 179.523C81.2097 179.767 82.3179 180.608 82.8577 181.807C86.2399 189.268 87.6432 196.959 91.1117 203.121C99.2579 217.605 104.907 220.241 118.213 216.262C131.519 212.284 133.368 203.681 129.727 196.765H129.741Z" fill="#D9D0C5"/>
<path id="Vector_13" d="M69.9976 2.09691C69.9976 2.09691 73.3006 7.49719 73.3006 15.2026L83.0227 13.4504C83.0227 13.4504 83.1595 7.14531 79.8492 0L69.9976 2.09691Z" fill="#AAD7D2"/>
<path id="Vector_14" d="M24.0138 46.9868C24.0138 46.9868 26.662 52.739 33.0667 57.0333L26.1871 64.1068C26.1871 64.1068 20.8691 60.7029 16.7744 53.9741L24.0138 46.9868Z" fill="#FACD48"/>
<path id="Vector_15" d="M200.76 94.2822C200.76 94.2822 198.112 100.034 191.708 104.329L198.587 111.402C198.587 111.402 203.905 107.998 208 101.27L200.76 94.2822Z" fill="#F4A678"/>
<path id="Vector_16" d="M162.218 145.829C162.218 145.829 168.536 145.312 174.775 140.78L179.086 149.656C179.086 149.656 174.056 153.477 166.32 155.013L162.218 145.836V145.829Z" fill="#FACD48"/>
<path id="Vector_17" d="M60.8009 37.177C60.8009 37.177 63.1397 33.6725 67.7884 31.511L64.0032 26.1538C64.0032 26.1538 60.1604 27.8414 56.771 31.8413L60.8009 37.177Z" fill="white"/>
<path id="Vector_18" d="M6.98755 143.926C6.98755 143.926 4.64877 140.422 0 138.26L3.78522 132.903C3.78522 132.903 7.62801 134.59 11.0174 138.59L6.98755 143.926Z" fill="#F4A678"/>
<g id="Group_3">
<g id="Group_4">
<path id="Vector_19" d="M172.832 117.262L168.277 119.883L164.78 121.901L160.865 124.156L158.044 125.786L155.072 127.495L152.942 128.716L150.725 129.994L149.02 130.978L147.048 132.113L145.71 132.881L143.759 134.001C143.284 134.274 142.716 133.808 142.91 133.29L143.673 131.179L144.198 129.736L144.976 127.603L145.645 125.757L146.516 123.359L147.35 121.061L148.516 117.851L149.624 114.799L151.164 110.569L152.532 106.799L154.381 101.708L172.839 117.255L172.832 117.262Z" fill="white"/>
<g id="Group_5">
<path id="Vector_20" d="M148.962 126.993C147.897 126.102 146.976 125.147 146.228 124.178L145.645 125.779L144.983 127.61C145.523 128.242 146.142 128.86 146.84 129.442C147.559 130.045 148.308 130.555 149.056 130.978L150.74 130.009L152.208 129.161C151.128 128.601 150.027 127.869 148.97 126.993H148.962Z" fill="#5DD2DD"/>
<path id="Vector_21" d="M152.741 122.44C151.028 121.011 149.603 119.445 148.516 117.873L147.351 121.083L147.056 121.894C147.883 123.1 148.977 124.307 150.294 125.406C151.604 126.497 152.978 127.352 154.309 127.948L155.079 127.503L158.052 125.793C156.296 125.011 154.475 123.883 152.748 122.44H152.741Z" fill="#5DD2DD"/>
<path id="Vector_22" d="M145.739 130.756C145.228 130.332 144.753 129.88 144.328 129.42L144.206 129.757L143.68 131.201L143.198 132.522C143.378 132.695 143.565 132.86 143.76 133.025C144.004 133.233 144.256 133.42 144.508 133.599L145.717 132.903L147.055 132.134L147.372 131.955C146.818 131.603 146.271 131.208 145.739 130.763V130.756Z" fill="#5DD2DD"/>
<path id="Vector_23" d="M161.585 111.883C156.957 108.02 153.928 103.862 154.28 102.009L152.532 106.814C153.834 109.499 156.094 112.357 159.095 114.856C162.124 117.384 165.377 119.101 168.284 119.89L172.84 117.269L172.782 117.219C171.17 118.117 166.37 115.862 161.585 111.876V111.883Z" fill="#5DD2DD"/>
<path id="Vector_24" d="M157.022 117.334C154.504 115.237 152.51 112.889 151.165 110.598L149.625 114.828C150.754 116.717 152.402 118.648 154.475 120.372C156.569 122.117 158.785 123.402 160.865 124.171L164.78 121.916C162.261 121.004 159.555 119.445 157.022 117.327V117.334Z" fill="#5DD2DD"/>
</g>
<path id="Vector_25" d="M173.142 117.032C171.918 118.49 166.758 116.192 161.613 111.898C156.468 107.603 153.287 102.943 154.503 101.485C155.727 100.027 160.886 102.325 166.032 106.62C171.177 110.914 174.358 115.575 173.142 117.032Z" fill="#219EA4"/>
</g>
<g id="Group_6">
<path id="Vector_26" d="M187.843 89.8083L186.138 91.1153C186.382 90.9071 186.577 90.6701 186.742 90.4044C187.886 88.5445 187.368 85.3847 188.405 83.453L190.11 82.146C188.923 84.3578 189.765 88.171 187.843 89.8155V89.8083Z" fill="#EF7A9B" stroke="#EF7A9B" stroke-width="2" stroke-miterlimit="10"/>
<path id="Vector_27" d="M185.9 91.2948C185.756 91.3953 185.605 91.4815 185.433 91.5605C183.972 92.214 181.503 92.0129 179.927 92.1062C178.244 92.2068 176.646 92.5156 175.149 93.1978C174.854 93.3342 174.566 93.485 174.286 93.643C174.538 93.3917 174.811 93.1619 175.099 92.9393H175.113C175.646 92.5299 176.229 92.1781 176.862 91.8908C178.359 91.2158 179.956 90.8998 181.64 90.7993C183.087 90.7131 185.26 90.8783 186.742 90.4043C186.577 90.67 186.383 90.9142 186.138 91.1152C186.066 91.1799 185.987 91.2373 185.908 91.2948H185.9Z" fill="#EF7A9B" stroke="#EF7A9B" stroke-width="2" stroke-miterlimit="10"/>
<path id="Vector_28" d="M165.6 108.386C164.938 108.86 164.189 109.155 163.362 109.169L165.067 107.862C165.6 107.848 166.104 107.726 166.571 107.51C166.348 107.754 166.118 107.977 165.873 108.178C165.787 108.25 165.693 108.322 165.607 108.386H165.6Z" fill="#EF7A9B" stroke="#EF7A9B" stroke-width="2" stroke-miterlimit="10"/>
<path id="Vector_29" d="M167.45 106.971L165.874 108.178C166.118 107.977 166.356 107.754 166.572 107.51C168.543 105.341 169.644 101.571 170.098 99.5317C170.573 97.3701 171.71 95.5245 173.394 94.2391L175.099 92.9321C174.811 93.1476 174.545 93.3845 174.286 93.6359C173.048 94.8567 172.199 96.4294 171.803 98.2247C171.292 100.53 169.954 105.054 167.45 106.971Z" fill="#EF7A9B" stroke="#EF7A9B" stroke-width="2" stroke-miterlimit="10"/>
</g>
<path id="Vector_30" d="M161.354 105.672C161.354 105.672 162.131 103.115 161.117 101.392C160.743 100.752 160.246 100.379 159.764 100.164C159.764 100.164 159.742 100.156 159.735 100.149C158.512 99.6609 158.094 98.9499 157.972 98.397C157.835 94.7489 160.404 91.0937 160.404 91.0937L157.13 90.9429C155.741 96.1205 156.504 98.318 157.274 99.2372C157.36 99.3377 157.922 99.8476 158.102 100.049C159.015 101.083 159.174 101.83 159.195 101.944C159.195 101.944 159.195 101.952 159.195 101.959C159.462 103.733 158.274 105.076 158.274 105.076L161.354 105.679V105.672Z" fill="#CE9FCB" stroke="#CE9FCB" stroke-width="0.5" stroke-miterlimit="10"/>
<path id="Vector_31" d="M168.011 111.273C168.011 111.273 170.364 109.995 172.264 110.634C172.969 110.871 173.437 111.28 173.746 111.711C173.746 111.711 173.761 111.733 173.768 111.74C174.495 112.839 175.272 113.097 175.847 113.104C179.453 112.494 182.526 109.248 182.526 109.248L183.339 112.415C178.539 114.821 176.229 114.519 175.171 113.959C175.056 113.894 174.437 113.449 174.207 113.313C173.005 112.623 172.235 112.623 172.127 112.63C172.127 112.63 172.12 112.63 172.113 112.63C170.314 112.731 169.241 114.16 169.241 114.16L168.025 111.273H168.011Z" fill="#FACD48"/>
<path id="Vector_32" d="M177.589 107.605L177.27 105.772L174.909 106.183L175.229 108.015L177.589 107.605Z" fill="white"/>
<path id="Vector_33" d="M183.358 101.443L181.744 100.513L180.545 102.584L182.16 103.514L183.358 101.443Z" fill="#AAD7D2"/>
<path id="Vector_34" d="M163.892 100.204L165.747 100.023L165.514 97.6429L163.659 97.8238L163.892 100.204Z" fill="#FACD48"/>
<path id="Vector_35" d="M166.391 92.3497L167.72 93.6543L169.401 91.9498L168.072 90.6453L166.391 92.3497Z" fill="white"/>
</g>
<path id="Vector_36" d="M106.403 122.986C106.403 122.986 117.032 114.253 140.744 111.646" stroke="#AF9E8A" stroke-width="3" stroke-linecap="round" stroke-linejoin="round"/>
</g>
</g>
</g>
<defs>
<clipPath id="clip0_435_2506">
<rect width="208" height="222" fill="white"/>
</clipPath>
</defs>
</svg>
